<svg width="34" height="32" viewBox="0 0 34 32" fill="none" xmlns="http://www.w3.org/2000/svg">
<path fill-rule="evenodd" clip-rule="evenodd" d="M26.2691 31.1261C26.0058 31.1261 25.7408 31.066 25.4975 30.9425L16.9991 26.6135L8.50246 30.9425C7.93913 31.2269 7.25913 31.1781 6.74913 30.8141C6.23579 30.4501 5.98079 29.8343 6.08913 29.2249L7.70746 20.0794L0.840794 13.6038C0.384128 13.1731 0.219128 12.5264 0.414128 11.9349C0.609128 11.3466 1.13079 10.916 1.76079 10.8283L11.2608 9.48276L15.5075 1.15301C16.0708 0.0480145 17.9291 0.0480145 18.4925 1.15301L22.7391 9.48276L32.2391 10.8283C32.8691 10.916 33.3908 11.3466 33.5858 11.9349C33.7808 12.5264 33.6158 13.1731 33.1591 13.6038L26.2925 20.0794L27.9108 29.2249C28.0191 29.8343 27.7625 30.4501 27.2508 30.8141C26.9608 31.0221 26.6158 31.1261 26.2691 31.1261" fill="#231F20"/>
</svg>
