<svg width="183" height="190" viewBox="0 0 183 190" fill="none" xmlns="http://www.w3.org/2000/svg">
<path d="M158.717 117.817C157.101 112.21 151.944 108.774 147.199 110.142C142.454 111.509 139.918 117.163 141.534 122.77C143.15 128.376 148.307 131.813 153.052 130.445C157.797 129.077 160.333 123.423 158.717 117.817Z" fill="white"/>
<path fill-rule="evenodd" clip-rule="evenodd" d="M142.315 122.544C143.843 127.847 148.63 130.873 152.826 129.664C157.023 128.454 159.464 123.344 157.936 118.042C156.407 112.739 151.621 109.713 147.424 110.923C143.228 112.132 140.786 117.242 142.315 122.544ZM153.276 131.226C147.983 132.752 142.456 128.905 140.753 122.995C139.049 117.084 141.681 110.886 146.974 109.361C152.267 107.835 157.794 111.681 159.498 117.592C161.202 123.502 158.57 129.7 153.276 131.226Z" fill="black"/>
<path d="M103.061 48.7361C108.917 52.5783 107.91 62.9906 106.675 67.7164C113.129 59.0729 118.742 39.3106 89.5649 29.4095C86.6891 28.4335 84.0633 27.7952 81.668 27.4505C78.5141 26.9966 75.7599 27.0518 73.3609 27.5156C59.0975 30.2732 57.39 47.4763 58.8778 58.0184C60.1708 51.6455 65.3739 53.2541 67.8138 54.855C74.4361 58.1893 94.0714 52.165 103.061 48.7361Z" fill="black"/>
<path d="M68.7374 9.42462C56.7397 12.9621 66.8207 22.9592 73.3609 27.5156C75.7599 27.0518 78.5141 26.9966 81.668 27.4505C82.3569 19.9679 80.7351 5.88717 68.7374 9.42462Z" fill="black"/>
<path d="M42.6682 149.382C51.3409 149.151 86.6323 145.363 100.475 154.807C105.208 158.036 105.286 160.406 103.339 162.127L123.976 162.127C125.277 156.22 106.447 128.235 96.87 114.981C94.7802 112.724 92.7269 110.69 90.7804 108.891C69.426 124.043 49.8079 105.805 42.6682 94.7923C33.3367 95.9594 22.088 99.1727 15.2856 108.891L35.4063 128.733L42.6682 149.382Z" fill="black"/>
<path fill-rule="evenodd" clip-rule="evenodd" d="M75.5449 10.4195C73.9441 9.59696 71.8169 9.36405 68.9674 10.2042C66.0707 11.0583 64.7289 12.2391 64.2268 13.4208C63.7247 14.6025 63.9491 16.0517 64.8177 17.7109C66.5126 20.9485 70.357 24.3889 73.5494 26.6543C75.7403 26.27 78.1905 26.211 80.9241 26.5332C81.1533 22.9294 80.8266 18.1853 79.22 14.6406C78.3583 12.7395 77.1589 11.2488 75.5449 10.4195ZM82.5382 26.7627C82.7915 23.0058 82.4799 17.8948 80.7007 13.9694C79.7433 11.8571 78.3307 10.0232 76.2878 8.97351C74.2317 7.91696 71.657 7.71632 68.5077 8.64488C65.4055 9.55952 63.5083 10.9549 62.7306 12.785C61.953 14.615 62.408 16.6131 63.3775 18.4649C65.0393 21.6393 68.4461 24.8433 71.4643 27.1389C65.0474 29.0196 61.3619 33.9325 59.4431 39.5865C57.3833 45.6555 57.3187 52.6607 58.054 57.9956C57.4062 61.4141 58.601 64.0583 60.3468 65.9369C61.8496 67.554 63.763 68.6131 65.2864 69.1771C64.5657 73.014 63.3886 78.4877 62.0461 83.2539C61.3325 85.7873 60.5787 88.0972 59.8298 89.8491C59.4548 90.7263 59.0907 91.4403 58.7462 91.9652C58.3856 92.5145 58.1104 92.7564 57.9517 92.8318C57.8691 92.871 57.6949 92.9255 57.3873 92.9781C57.0909 93.0288 56.717 93.0703 56.2637 93.1054C55.384 93.1736 54.2667 93.2134 52.9388 93.2607L52.8071 93.2654C50.0504 93.3637 46.4775 93.4966 42.5674 93.9857C33.1693 95.1611 21.6248 98.417 14.6198 108.425C12.9201 110.854 11.4948 113.671 10.4344 116.936C5.97589 130.667 5.55832 142.985 8.09347 152.384C10.627 161.776 16.149 168.347 23.6093 170.297C26.6002 171.079 30.8015 170.97 35.6561 170.484C39.3839 170.11 43.5754 169.504 48.0042 168.863C49.369 168.666 50.7564 168.465 52.1597 168.267C64.1271 166.578 77.2937 165.07 88.189 167.144C88.2606 167.158 88.3337 167.162 88.4064 167.156L88.3411 166.346C88.4064 167.156 88.4065 167.156 88.4067 167.156L88.4073 167.156L88.4093 167.156L88.4163 167.155L88.4422 167.153L88.5407 167.144C88.6265 167.137 88.7519 167.125 88.9121 167.109C89.2325 167.077 89.6929 167.028 90.2565 166.959C91.3828 166.821 92.9259 166.601 94.5902 166.276C96.2519 165.951 98.0503 165.519 99.6815 164.951C101.177 164.43 102.595 163.774 103.635 162.939L123.976 162.939C124.358 162.939 124.688 162.674 124.77 162.301C124.981 161.346 124.771 160.09 124.356 158.714C123.931 157.303 123.246 155.633 122.371 153.784C120.621 150.085 118.073 145.59 115.196 140.885C109.44 131.47 102.325 121.143 97.529 114.505C97.5097 114.479 97.4889 114.453 97.4666 114.429C95.3619 112.155 93.2936 110.107 91.3322 108.294C87.2224 104.497 83.572 101.727 81.0291 100.094L82.5068 92.8107C88.399 93.5863 93.6643 89.792 97.8234 84.8524C102.17 79.6894 105.519 73.0402 107.395 68.1104C110.679 63.6687 113.766 56.3853 112.279 48.8766C110.767 41.2417 104.589 33.6494 89.8263 28.6396C87.2068 27.7507 84.7819 27.1346 82.5382 26.7627ZM108.229 63.696C110.329 59.6492 111.724 54.4453 110.684 49.1924C109.322 42.31 103.718 35.0706 89.3039 30.1791C86.4679 29.2167 83.891 28.5916 81.5524 28.255C78.4734 27.8119 75.8117 27.8696 73.5154 28.3136C66.7548 29.6207 62.9439 34.3297 60.9825 40.109C59.3977 44.7788 59.0475 50.0915 59.3524 54.6927C59.5217 54.4546 59.7034 54.2375 59.8967 54.0407C60.7524 53.1698 61.782 52.7534 62.827 52.6385C64.8405 52.417 66.9212 53.307 68.2186 54.1484C69.6792 54.8681 71.9545 55.1224 74.8093 54.9759C77.6595 54.8297 80.9672 54.2919 84.3742 53.538C91.1862 52.0308 98.3035 49.6808 102.772 47.9766C103.015 47.8836 103.289 47.9133 103.507 48.0564C106.748 50.1829 108.003 54.0621 108.337 57.823C108.515 59.8313 108.437 61.8655 108.229 63.696ZM66.8577 55.2258C65.7477 54.6062 64.2954 54.1125 63.0047 54.2544C62.2823 54.3339 61.6162 54.6102 61.0564 55.18C60.4883 55.7582 59.9761 56.6936 59.6745 58.18C59.0887 61.067 60.0615 63.2418 61.5376 64.8302C62.681 66.0605 64.1238 66.9306 65.3589 67.4567C65.2583 62.7293 65.9745 58.3502 66.8577 55.2258ZM66.0171 73.7988C65.3489 76.9418 64.5182 80.4736 63.6109 83.6947C62.8899 86.2545 62.1139 88.6418 61.3246 90.4881C60.9305 91.4101 60.5232 92.2205 60.1053 92.8573C59.7032 93.4698 59.2246 94.027 58.6491 94.3003C58.3643 94.4355 58.0163 94.5199 57.6612 94.5806C57.2949 94.6432 56.8656 94.6894 56.3893 94.7263C55.4749 94.7971 54.3274 94.838 53.0214 94.8845L52.8651 94.8901C50.4276 94.977 47.4026 95.0897 44.0865 95.4458C47.7422 100.706 53.9986 107.222 61.7441 110.92C69.7661 114.75 79.3805 115.566 89.4786 108.802C85.4754 105.175 81.9955 102.6 79.6927 101.173C79.4037 100.993 79.2567 100.653 79.3243 100.32L80.9129 92.4907C79.5636 92.1254 78.2039 91.5155 76.8401 90.6353C70.3536 86.4486 67.245 80.1357 66.0171 73.7988ZM90.7073 109.933C79.9486 117.299 69.5906 116.467 61.0437 112.387C52.6235 108.367 45.9573 101.201 42.2681 95.6632C33.298 96.849 22.8659 99.9676 16.3516 108.801L35.9772 128.154C36.0652 128.241 36.1322 128.346 36.1732 128.463L43.2373 148.55C44.3904 148.505 45.9189 148.415 47.7368 148.307C53.2031 147.984 61.2859 147.507 69.6473 147.654C75.4893 147.756 81.5168 148.163 86.9663 149.143C92.4026 150.12 97.3344 151.68 100.933 154.135C103.336 155.775 104.738 157.308 105.19 158.796C105.424 159.567 105.397 160.308 105.14 160.996C105.099 161.104 105.053 161.21 105.002 161.314L123.225 161.314C123.202 160.789 123.071 160.083 122.8 159.183C122.407 157.881 121.759 156.292 120.902 154.48C119.188 150.857 116.674 146.419 113.809 141.733C108.093 132.384 101.021 122.115 96.2402 115.497C94.3473 113.454 92.4853 111.597 90.7073 109.933ZM15.4121 110.158C14.0426 112.265 12.8774 114.677 11.9807 117.438C7.59555 130.943 7.22803 142.933 9.66307 151.961C12.0998 160.994 17.3032 166.968 24.0204 168.724C26.7004 169.424 30.6387 169.353 35.494 168.866C39.1829 168.497 43.3243 167.898 47.7442 167.258C49.1152 167.06 50.513 166.858 51.9324 166.658C63.8299 164.978 77.2064 163.425 88.3824 165.526L88.3959 165.525C88.4767 165.518 88.5968 165.507 88.7514 165.491C89.0609 165.461 89.5086 165.413 90.0583 165.345C91.1584 165.21 92.662 164.996 94.2786 164.68C95.8979 164.364 97.6147 163.949 99.1469 163.415C100.695 162.876 101.982 162.241 102.8 161.517C103.22 161.147 103.484 160.781 103.617 160.426C103.745 160.085 103.768 159.709 103.634 159.269C103.351 158.334 102.347 157.068 100.017 155.478C96.6944 153.212 92.0238 151.704 86.6786 150.743C81.3468 149.784 75.414 149.381 69.6187 149.279C61.3239 149.133 53.412 149.601 47.951 149.925C45.757 150.054 43.9586 150.161 42.69 150.195C42.3372 150.204 42.0186 149.985 41.9015 149.652L34.7019 129.18L15.4121 110.158ZM68.3418 55.9575C67.4657 59.1772 66.7783 63.739 67.0263 68.589C67.4146 76.1841 70.0813 84.3379 77.7217 89.2694C79.2001 90.2236 80.6372 90.8047 82.0262 91.0837C87.3208 92.1473 92.3231 88.8609 96.5798 83.8053C100.793 78.8016 104.07 72.2939 105.899 67.4693C106.495 65.1717 107.032 61.5057 106.718 57.9666C106.413 54.5355 105.33 51.4146 102.948 49.6481C98.4097 51.3581 91.4325 53.6414 84.7254 55.1253C81.2721 55.8894 77.8674 56.4468 74.8926 56.5995C72.3934 56.7277 70.1083 56.5764 68.3418 55.9575Z" fill="black"/>
<path d="M77.2808 89.9524C69.3364 84.8247 66.6099 76.3669 66.2144 68.6305C64.8001 76.3613 61.2374 92.1715 58.3003 93.5661C56.8307 94.2639 50.4091 93.8241 42.6682 94.7923C49.8079 105.805 69.426 124.043 90.7804 108.891C86.4337 104.875 82.6195 102.031 80.1208 100.482L81.866 91.8807C80.367 91.5796 78.8356 90.956 77.2808 89.9524Z" fill="white"/>
<path d="M106.675 67.7164C107.91 62.9906 108.917 52.5783 103.061 48.7361C94.0714 52.165 74.4361 58.1893 67.8138 54.855C66.7992 58.174 65.9381 63.2262 66.2144 68.6305C66.6099 76.3669 69.3364 84.8247 77.2808 89.9524C78.8356 90.956 80.367 91.5796 81.866 91.8807C93.3765 94.1928 102.98 77.4853 106.675 67.7164Z" fill="white"/>
<path d="M66.2144 68.6305C65.9381 63.2262 66.7992 58.174 67.8138 54.855C65.3739 53.2541 60.1708 51.6455 58.8778 58.0184C57.5847 64.3913 63.2301 67.7486 66.2144 68.6305Z" fill="white"/>
<path d="M11.2074 117.188C2.36377 144.423 9.63722 165.804 23.8147 169.51C35.1567 172.475 66.2472 162.139 88.3409 166.346C88.3409 166.346 99.5906 165.439 103.339 162.127C105.286 160.406 105.208 158.036 100.475 154.807C86.6323 145.363 51.3409 149.151 42.6682 149.382L35.4063 128.733L15.2856 108.891C13.6336 111.252 12.2438 113.996 11.2074 117.188Z" fill="white"/>
<path fill-rule="evenodd" clip-rule="evenodd" d="M75.5449 10.4195C73.9441 9.59696 71.8169 9.36405 68.9674 10.2042C66.0707 11.0583 64.7289 12.2391 64.2268 13.4208C63.7247 14.6025 63.9491 16.0517 64.8177 17.7109C66.5126 20.9485 70.357 24.3889 73.5494 26.6543C75.7403 26.27 78.1905 26.211 80.9241 26.5332C81.1533 22.9294 80.8266 18.1853 79.22 14.6406C78.3583 12.7395 77.1589 11.2488 75.5449 10.4195ZM82.5382 26.7627C82.7915 23.0058 82.4799 17.8948 80.7007 13.9694C79.7433 11.8571 78.3307 10.0232 76.2878 8.97351C74.2317 7.91696 71.657 7.71632 68.5077 8.64488C65.4055 9.55952 63.5083 10.9549 62.7306 12.785C61.953 14.615 62.408 16.6131 63.3775 18.4649C65.0393 21.6393 68.4461 24.8433 71.4643 27.1389C65.0474 29.0196 61.3619 33.9325 59.4431 39.5865C57.3833 45.6555 57.3187 52.6607 58.054 57.9956C57.4062 61.4141 58.601 64.0583 60.3468 65.9369C61.8496 67.554 63.763 68.6131 65.2864 69.1771C64.5657 73.014 63.3886 78.4877 62.0461 83.2539C61.3325 85.7873 60.5787 88.0972 59.8298 89.8491C59.4548 90.7263 59.0907 91.4403 58.7462 91.9652C58.3856 92.5145 58.1104 92.7564 57.9517 92.8318C57.8691 92.871 57.6949 92.9255 57.3873 92.9781C57.0909 93.0288 56.717 93.0703 56.2637 93.1054C55.384 93.1736 54.2667 93.2134 52.9388 93.2607L52.8071 93.2654C50.0504 93.3637 46.4775 93.4966 42.5674 93.9857C33.1693 95.1611 21.6248 98.417 14.6198 108.425C12.9201 110.854 11.4948 113.671 10.4344 116.936C5.97589 130.667 5.55832 142.985 8.09347 152.384C10.627 161.776 16.149 168.347 23.6093 170.297C26.6002 171.079 30.8015 170.97 35.6561 170.484C39.3839 170.11 43.5754 169.504 48.0042 168.863C49.369 168.666 50.7564 168.465 52.1597 168.267C64.1271 166.578 77.2937 165.07 88.189 167.144C88.2606 167.158 88.3337 167.162 88.4064 167.156L88.3411 166.346C88.4064 167.156 88.4065 167.156 88.4067 167.156L88.4073 167.156L88.4093 167.156L88.4163 167.155L88.4422 167.153L88.5407 167.144C88.6265 167.137 88.7519 167.125 88.9121 167.109C89.2325 167.077 89.6929 167.028 90.2565 166.959C91.3828 166.821 92.9259 166.601 94.5902 166.276C96.2519 165.951 98.0503 165.519 99.6815 164.951C101.177 164.43 102.595 163.774 103.635 162.939L123.976 162.939C124.358 162.939 124.688 162.674 124.77 162.301C124.981 161.346 124.771 160.09 124.356 158.714C123.931 157.303 123.246 155.633 122.371 153.784C120.621 150.085 118.073 145.59 115.196 140.885C109.44 131.47 102.325 121.143 97.529 114.505C97.5097 114.479 97.4889 114.453 97.4666 114.429C95.3619 112.155 93.2936 110.107 91.3322 108.294C87.2224 104.497 83.572 101.727 81.0291 100.094L82.5068 92.8107C88.399 93.5863 93.6643 89.792 97.8234 84.8524C102.17 79.6894 105.519 73.0402 107.395 68.1104C110.679 63.6687 113.766 56.3853 112.279 48.8766C110.767 41.2417 104.589 33.6494 89.8263 28.6396C87.2068 27.7507 84.7819 27.1346 82.5382 26.7627ZM108.229 63.696C110.329 59.6492 111.724 54.4453 110.684 49.1924C109.322 42.31 103.718 35.0706 89.3039 30.1791C86.4679 29.2167 83.891 28.5916 81.5524 28.255C78.4734 27.8119 75.8117 27.8696 73.5154 28.3136C66.7548 29.6207 62.9439 34.3297 60.9825 40.109C59.3977 44.7788 59.0475 50.0915 59.3524 54.6927C59.5217 54.4546 59.7034 54.2375 59.8967 54.0407C60.7524 53.1698 61.782 52.7534 62.827 52.6385C64.8405 52.417 66.9212 53.307 68.2186 54.1484C69.6792 54.8681 71.9545 55.1224 74.8093 54.9759C77.6595 54.8297 80.9672 54.2919 84.3742 53.538C91.1862 52.0308 98.3035 49.6808 102.772 47.9766C103.015 47.8836 103.289 47.9133 103.507 48.0564C106.748 50.1829 108.003 54.0621 108.337 57.823C108.515 59.8313 108.437 61.8655 108.229 63.696ZM66.8577 55.2258C65.7477 54.6062 64.2954 54.1125 63.0047 54.2544C62.2823 54.3339 61.6162 54.6102 61.0564 55.18C60.4883 55.7582 59.9761 56.6936 59.6745 58.18C59.0887 61.067 60.0615 63.2418 61.5376 64.8302C62.681 66.0605 64.1238 66.9306 65.3589 67.4567C65.2583 62.7293 65.9745 58.3502 66.8577 55.2258ZM66.0171 73.7988C65.3489 76.9418 64.5182 80.4736 63.6109 83.6947C62.8899 86.2545 62.1139 88.6418 61.3246 90.4881C60.9305 91.4101 60.5232 92.2205 60.1053 92.8573C59.7032 93.4698 59.2246 94.027 58.6491 94.3003C58.3643 94.4355 58.0163 94.5199 57.6612 94.5806C57.2949 94.6432 56.8656 94.6894 56.3893 94.7263C55.4749 94.7971 54.3274 94.838 53.0214 94.8845L52.8651 94.8901C50.4276 94.977 47.4026 95.0897 44.0865 95.4458C47.7422 100.706 53.9986 107.222 61.7441 110.92C69.7661 114.75 79.3805 115.566 89.4786 108.802C85.4754 105.175 81.9955 102.6 79.6927 101.173C79.4037 100.993 79.2567 100.653 79.3243 100.32L80.9129 92.4907C79.5636 92.1254 78.2039 91.5155 76.8401 90.6353C70.3536 86.4486 67.245 80.1357 66.0171 73.7988ZM90.7073 109.933C79.9486 117.299 69.5906 116.467 61.0437 112.387C52.6235 108.367 45.9573 101.201 42.2681 95.6632C33.298 96.849 22.8659 99.9676 16.3516 108.801L35.9772 128.154C36.0652 128.241 36.1322 128.346 36.1732 128.463L43.2373 148.55C44.3904 148.505 45.9189 148.415 47.7368 148.307C53.2031 147.984 61.2859 147.507 69.6473 147.654C75.4893 147.756 81.5168 148.163 86.9663 149.143C92.4026 150.12 97.3344 151.68 100.933 154.135C103.336 155.775 104.738 157.308 105.19 158.796C105.424 159.567 105.397 160.308 105.14 160.996C105.099 161.104 105.053 161.21 105.002 161.314L123.225 161.314C123.202 160.789 123.071 160.083 122.8 159.183C122.407 157.881 121.759 156.292 120.902 154.48C119.188 150.857 116.674 146.419 113.809 141.733C108.093 132.384 101.021 122.115 96.2402 115.497C94.3473 113.454 92.4853 111.597 90.7073 109.933ZM15.4121 110.158C14.0426 112.265 12.8774 114.677 11.9807 117.438C7.59555 130.943 7.22803 142.933 9.66307 151.961C12.0998 160.994 17.3032 166.968 24.0204 168.724C26.7004 169.424 30.6387 169.353 35.494 168.866C39.1829 168.497 43.3243 167.898 47.7442 167.258C49.1152 167.06 50.513 166.858 51.9324 166.658C63.8299 164.978 77.2064 163.425 88.3824 165.526L88.3959 165.525C88.4767 165.518 88.5968 165.507 88.7514 165.491C89.0609 165.461 89.5086 165.413 90.0583 165.345C91.1584 165.21 92.662 164.996 94.2786 164.68C95.8979 164.364 97.6147 163.949 99.1469 163.415C100.695 162.876 101.982 162.241 102.8 161.517C103.22 161.147 103.484 160.781 103.617 160.426C103.745 160.085 103.768 159.709 103.634 159.269C103.351 158.334 102.347 157.068 100.017 155.478C96.6944 153.212 92.0238 151.704 86.6786 150.743C81.3468 149.784 75.414 149.381 69.6187 149.279C61.3239 149.133 53.412 149.601 47.951 149.925C45.757 150.054 43.9586 150.161 42.69 150.195C42.3372 150.204 42.0186 149.985 41.9015 149.652L34.7019 129.18L15.4121 110.158ZM68.3418 55.9575C67.4657 59.1772 66.7783 63.739 67.0263 68.589C67.4146 76.1841 70.0813 84.3379 77.7217 89.2694C79.2001 90.2236 80.6372 90.8047 82.0262 91.0837C87.3208 92.1473 92.3231 88.8609 96.5798 83.8053C100.793 78.8016 104.07 72.2939 105.899 67.4693C106.495 65.1717 107.032 61.5057 106.718 57.9666C106.413 54.5355 105.33 51.4146 102.948 49.6481C98.4097 51.3581 91.4325 53.6414 84.7254 55.1253C81.2721 55.8894 77.8674 56.4468 74.8926 56.5995C72.3934 56.7277 70.1083 56.5764 68.3418 55.9575Z" fill="black"/>
<path d="M83.6229 95.4732C92.0766 82.4676 100.693 88.4285 103.944 93.0346L131.292 140.993C131.292 140.993 136.067 155.634 125.078 162.127C110.772 170.581 98.5252 121.188 94.19 103.564C85.8775 105.864 76.6163 106.253 83.6229 95.4732Z" fill="white"/>
<path fill-rule="evenodd" clip-rule="evenodd" d="M103.258 93.4717L130.542 141.319C130.548 141.339 130.556 141.362 130.564 141.39C130.594 141.491 130.637 141.644 130.69 141.842C130.795 142.238 130.934 142.816 131.067 143.531C131.336 144.964 131.58 146.934 131.494 149.092C131.32 153.41 129.833 158.373 124.665 161.427C123.073 162.368 121.561 162.488 120.081 161.99C118.56 161.479 117.006 160.292 115.44 158.488C112.306 154.879 109.339 149.053 106.65 142.323C101.433 129.267 97.3821 113.125 95.1669 104.131C96.6409 103.701 98.0677 103.219 99.3527 102.737C99.773 102.579 99.986 102.111 99.8283 101.69C99.6707 101.27 99.2022 101.057 98.7818 101.215C97.3182 101.764 95.6649 102.312 93.9734 102.781C91.9223 103.348 89.833 103.792 87.9666 103.977C86.0772 104.165 84.5145 104.077 83.4563 103.666C82.9404 103.465 82.5803 103.202 82.3465 102.889C82.1174 102.583 81.9672 102.174 81.9622 101.601C81.9515 100.405 82.5746 98.5775 84.3046 95.916C88.4316 89.5667 92.436 88.0667 95.6363 88.4562C98.9203 88.856 101.697 91.2753 103.258 93.4717ZM93.5992 104.564C91.7482 105.045 89.8629 105.422 88.1272 105.595C86.1612 105.79 84.288 105.733 82.8676 105.181C82.1442 104.9 81.5045 104.478 81.045 103.864C80.5807 103.243 80.3442 102.486 80.3365 101.615C80.3215 99.9241 81.1682 97.7582 82.9416 95.03C87.2682 88.3737 91.7987 86.3514 95.8328 86.8424C99.7674 87.3214 102.913 90.1642 104.608 92.5657C104.623 92.587 104.638 92.6091 104.65 92.6318L131.998 140.59C132.025 140.638 132.048 140.688 132.065 140.74L131.292 140.992C132.065 140.74 132.065 140.741 132.065 140.741L132.065 140.742L132.066 140.746L132.07 140.756L132.081 140.793C132.091 140.824 132.105 140.869 132.122 140.927C132.157 141.043 132.205 141.212 132.262 141.427C132.375 141.856 132.523 142.473 132.665 143.232C132.949 144.747 133.211 146.844 133.118 149.157C132.932 153.783 131.312 159.387 125.492 162.827C123.508 163.999 121.507 164.185 119.562 163.531C117.658 162.89 115.874 161.468 114.213 159.554C110.891 155.729 107.843 149.69 105.14 142.926C99.8851 129.774 95.8147 113.558 93.5992 104.564Z" fill="black"/>
<path fill-rule="evenodd" clip-rule="evenodd" d="M91.2275 62.094C91.3168 61.654 91.7458 61.3697 92.1858 61.459L98.5587 62.7521C98.9987 62.8413 99.283 63.2704 99.1937 63.7103C99.1044 64.1503 98.6754 64.4346 98.2355 64.3453L91.8625 63.0522C91.4226 62.963 91.1383 62.5339 91.2275 62.094Z" fill="#E5322B"/>
<path fill-rule="evenodd" clip-rule="evenodd" d="M101.941 61.2957C100.266 62.75 98.9332 64.9937 98.3855 67.693C97.8379 70.3922 98.1904 72.9778 99.1663 74.97C100.142 76.9612 101.714 78.3213 103.616 78.7071C105.517 79.0929 107.495 78.4531 109.169 76.9996C110.845 75.5453 112.177 73.3016 112.725 70.6024C113.272 67.9031 112.92 65.3175 111.944 63.3254C110.968 61.3342 109.396 59.974 107.495 59.5882C105.593 59.2024 103.615 59.8422 101.941 61.2957ZM100.875 60.0681C102.844 58.3585 105.32 57.4881 107.818 57.995C110.316 58.5019 112.257 60.2682 113.404 62.6102C114.551 64.9511 114.931 67.9054 114.318 70.9256C113.705 73.9459 112.204 76.5183 110.235 78.2272C108.266 79.9368 105.79 80.8072 103.292 80.3003C100.794 79.7934 98.8537 78.0271 97.7064 75.6852C96.5596 73.3442 96.1795 70.3899 96.7923 67.3697C97.4051 64.3495 98.9066 61.777 100.875 60.0681Z" fill="#E5322B"/>
<path fill-rule="evenodd" clip-rule="evenodd" d="M85.0389 51.7151C80.7588 50.8467 76.2307 54.2487 75.1331 59.6582C74.0355 65.0676 76.8796 69.9655 81.1597 70.8339C85.4397 71.7023 89.9679 68.3003 91.0655 62.8908C92.163 57.4814 89.3189 52.5835 85.0389 51.7151ZM73.5399 59.3349C74.7633 53.3054 79.9631 49.0264 85.3621 50.1219C90.7612 51.2173 93.8821 57.1846 92.6587 63.2141C91.4353 69.2436 86.2355 73.5226 80.8364 72.4272C75.4373 71.3317 72.3165 65.3644 73.5399 59.3349Z" fill="#E5322B"/>
<path d="M123.163 162.939H175.186C175.998 159.959 177.136 153.185 175.186 149.934C174.668 149.071 171.927 148.571 167.87 148.327C156.634 147.651 135.306 148.938 123.163 149.934C124.247 152.372 125.764 158.387 123.163 162.939Z" fill="black"/>
<path fill-rule="evenodd" clip-rule="evenodd" d="M171.106 134.49C171.397 134.485 171.669 134.635 171.819 134.885C172.254 135.61 172.822 136.784 173.111 137.977C173.382 139.099 173.489 140.587 172.509 141.567C172.073 142.003 171.491 142.318 170.895 142.552C170.291 142.789 169.62 142.963 168.959 143.091C167.848 143.306 166.712 143.4 165.871 143.425C165.644 143.817 165.569 144.169 165.574 144.479C165.581 144.881 165.726 145.29 165.991 145.698C166.501 146.481 167.377 147.14 168.093 147.526C170.061 147.649 171.745 147.835 173.022 148.103C173.678 148.24 174.256 148.405 174.721 148.608C175.161 148.801 175.621 149.079 175.883 149.516C176.994 151.366 177.177 154.09 177.034 156.585C176.888 159.123 176.389 161.618 175.97 163.153C175.874 163.507 175.552 163.752 175.186 163.752H123.163C122.874 163.752 122.606 163.598 122.46 163.347C122.315 163.097 122.314 162.788 122.458 162.536C123.649 160.451 123.917 157.991 123.735 155.708C123.577 153.722 123.081 151.929 122.621 150.747H117.474C117.386 150.747 117.299 150.732 117.216 150.705C116.464 150.454 115.999 149.915 115.77 149.271C115.555 148.665 115.552 147.983 115.631 147.354C115.788 146.09 116.318 144.738 116.747 143.881C116.88 143.614 117.148 143.442 117.446 143.432L127.707 143.084C128.155 142.641 128.683 141.98 129.006 141.258C129.378 140.426 129.425 139.657 128.99 139.005C128.843 138.785 128.758 138.486 128.845 138.161C128.923 137.875 129.107 137.683 129.245 137.57C129.512 137.352 129.884 137.203 130.24 137.091C130.989 136.853 132.106 136.644 133.464 136.456C136.2 136.076 140.102 135.755 144.471 135.487C153.219 134.951 163.92 134.626 171.106 134.49ZM129.875 143.01L165.404 141.806L165.432 141.806C166.203 141.806 167.451 141.727 168.651 141.495C169.25 141.379 169.818 141.228 170.301 141.039C170.793 140.846 171.145 140.632 171.36 140.418C171.68 140.097 171.787 139.418 171.531 138.359C171.337 137.561 170.981 136.742 170.652 136.125C163.488 136.265 153.092 136.588 144.571 137.11C140.209 137.377 136.359 137.696 133.687 138.066C132.342 138.253 131.341 138.447 130.731 138.64C130.702 138.649 130.675 138.658 130.65 138.667C131.139 139.801 130.913 140.975 130.49 141.922C130.316 142.309 130.104 142.675 129.875 143.01ZM124.32 150.656C124.773 151.948 125.204 153.684 125.356 155.579C125.521 157.654 125.355 159.976 124.464 162.126H174.556C174.912 160.67 175.29 158.59 175.411 156.491C175.552 154.041 175.329 151.752 174.489 150.352C174.489 150.352 174.49 150.353 174.489 150.352C174.48 150.342 174.391 150.238 174.069 150.098C173.748 149.957 173.29 149.82 172.689 149.694C171.489 149.443 169.836 149.259 167.821 149.138C156.979 148.486 136.616 149.675 124.32 150.656ZM123.13 149.121C134.38 148.2 153.536 147.024 165.271 147.396C165.036 147.146 164.817 146.874 164.628 146.584C164.244 145.992 163.962 145.29 163.948 144.506C163.942 144.164 163.988 143.82 164.089 143.477L117.997 145.04C117.672 145.775 117.348 146.718 117.244 147.555C117.18 148.064 117.207 148.459 117.302 148.727C117.37 148.919 117.468 149.042 117.628 149.121H123.13Z" fill="black"/>
<path d="M123.163 149.934C135.306 148.938 156.634 147.651 167.87 148.327C166.244 147.508 163.48 145.22 165.431 142.618L128.04 143.886L117.473 144.244C116.66 145.87 115.522 149.283 117.473 149.934H123.163Z" fill="white"/>
<path d="M128.04 143.886L165.431 142.618C167.057 142.618 170.634 142.293 171.934 140.993C173.235 139.692 171.934 136.657 171.121 135.303C156.761 135.574 128.365 136.603 129.666 138.554C130.966 140.505 129.124 142.921 128.04 143.886Z" fill="white"/>
<path fill-rule="evenodd" clip-rule="evenodd" d="M171.106 134.49C171.397 134.485 171.669 134.635 171.819 134.885C172.254 135.61 172.822 136.784 173.111 137.977C173.382 139.099 173.489 140.587 172.509 141.567C172.073 142.003 171.491 142.318 170.895 142.552C170.291 142.789 169.62 142.963 168.959 143.091C167.848 143.306 166.712 143.4 165.871 143.425C165.644 143.817 165.569 144.169 165.574 144.479C165.581 144.881 165.726 145.29 165.991 145.698C166.501 146.481 167.377 147.14 168.093 147.526C170.061 147.649 171.745 147.835 173.022 148.103C173.678 148.24 174.256 148.405 174.721 148.608C175.161 148.801 175.621 149.079 175.883 149.516C176.994 151.366 177.177 154.09 177.034 156.585C176.888 159.123 176.389 161.618 175.97 163.153C175.874 163.507 175.552 163.752 175.186 163.752H123.163C122.874 163.752 122.606 163.598 122.46 163.347C122.315 163.097 122.314 162.788 122.458 162.536C123.649 160.451 123.917 157.991 123.735 155.708C123.577 153.722 123.081 151.929 122.621 150.747H117.474C117.386 150.747 117.299 150.732 117.216 150.705C116.464 150.454 115.999 149.915 115.77 149.271C115.555 148.665 115.552 147.983 115.631 147.354C115.788 146.09 116.318 144.738 116.747 143.881C116.88 143.614 117.148 143.442 117.446 143.432L127.707 143.084C128.155 142.641 128.683 141.98 129.006 141.258C129.378 140.426 129.425 139.657 128.99 139.005C128.843 138.785 128.758 138.486 128.845 138.161C128.923 137.875 129.107 137.683 129.245 137.57C129.512 137.352 129.884 137.203 130.24 137.091C130.989 136.853 132.106 136.644 133.464 136.456C136.2 136.076 140.102 135.755 144.471 135.487C153.219 134.951 163.92 134.626 171.106 134.49ZM129.875 143.01L165.404 141.806L165.432 141.806C166.203 141.806 167.451 141.727 168.651 141.495C169.25 141.379 169.818 141.228 170.301 141.039C170.793 140.846 171.145 140.632 171.36 140.418C171.68 140.097 171.787 139.418 171.531 138.359C171.337 137.561 170.981 136.742 170.652 136.125C163.488 136.265 153.092 136.588 144.571 137.11C140.209 137.377 136.359 137.696 133.687 138.066C132.342 138.253 131.341 138.447 130.731 138.64C130.702 138.649 130.675 138.658 130.65 138.667C131.139 139.801 130.913 140.975 130.49 141.922C130.316 142.309 130.104 142.675 129.875 143.01ZM124.32 150.656C124.773 151.948 125.204 153.684 125.356 155.579C125.521 157.654 125.355 159.976 124.464 162.126H174.556C174.912 160.67 175.29 158.59 175.411 156.491C175.552 154.041 175.329 151.752 174.489 150.352C174.489 150.352 174.49 150.353 174.489 150.352C174.48 150.342 174.391 150.238 174.069 150.098C173.748 149.957 173.29 149.82 172.689 149.694C171.489 149.443 169.836 149.259 167.821 149.138C156.979 148.486 136.616 149.675 124.32 150.656ZM123.13 149.121C134.38 148.2 153.536 147.024 165.271 147.396C165.036 147.146 164.817 146.874 164.628 146.584C164.244 145.992 163.962 145.29 163.948 144.506C163.942 144.164 163.988 143.82 164.089 143.477L117.997 145.04C117.672 145.775 117.348 146.718 117.244 147.555C117.18 148.064 117.207 148.459 117.302 148.727C117.37 148.919 117.468 149.042 117.628 149.121H123.13Z" fill="black"/>
<path d="M153.051 130.445C148.306 131.812 143.15 128.376 141.534 122.77C139.918 117.163 142.454 111.509 147.199 110.142C144.61 110.71 141.129 112.014 138.32 114.169C134.495 117.102 131.919 121.613 134.543 127.987C135.454 129.525 137.53 131.51 140.766 132.367C142.243 132.759 143.963 132.915 145.923 132.687C148.023 132.442 150.399 131.756 153.051 130.445Z" fill="#E5322B"/>
<path d="M140.766 132.367L138.608 136.116L142.672 136.116L145.923 132.687C143.963 132.915 142.243 132.759 140.766 132.367Z" fill="#E5322B"/>
<path d="M153.051 130.445C151.534 131.195 150.107 131.74 148.77 132.116L153.051 135.303L156.49 135.303L153.051 130.445Z" fill="#E5322B"/>
<path fill-rule="evenodd" clip-rule="evenodd" d="M137 114.198L132.432 110.793C132.072 110.525 131.998 110.016 132.266 109.656C132.534 109.296 133.044 109.221 133.403 109.49L138.322 113.156C140.864 111.337 143.826 110.159 146.232 109.537L145.13 104.591C145.032 104.153 145.309 103.718 145.747 103.621C146.185 103.523 146.619 103.799 146.717 104.238L147.814 109.163C152.841 108.247 157.884 111.993 159.498 117.592C161.084 123.095 158.912 128.848 154.331 130.846L157.154 134.834C157.33 135.082 157.352 135.407 157.212 135.677C157.073 135.947 156.794 136.116 156.491 136.116L153.052 136.116C152.877 136.116 152.706 136.06 152.566 135.955L148.602 133.003C147.81 133.209 147.048 133.359 146.313 133.457L143.262 136.675C143.109 136.837 142.895 136.929 142.672 136.929L138.608 136.929C138.318 136.929 138.05 136.774 137.904 136.523C137.759 136.272 137.759 135.962 137.904 135.711L139.554 132.843C136.669 131.817 134.757 129.944 133.844 128.401C133.824 128.367 133.807 128.332 133.792 128.296C132.413 124.949 132.378 122.022 133.245 119.521C133.985 117.387 135.361 115.624 137 114.198ZM141.167 133.299C142.024 133.482 142.946 133.591 143.933 133.604L142.323 135.303L140.014 135.303L141.167 133.299ZM148.615 131.315C147.631 131.595 146.702 131.777 145.829 131.879C143.967 132.096 142.35 131.946 140.974 131.582C137.988 130.791 136.095 128.979 135.272 127.622C134.049 124.62 134.064 122.122 134.781 120.054C135.509 117.956 136.987 116.216 138.815 114.813C139.897 113.983 141.088 113.283 142.288 112.706C140.329 115.418 139.677 119.264 140.753 122.995C141.964 127.197 145.108 130.356 148.727 131.283C148.69 131.293 148.653 131.304 148.615 131.315ZM152.785 131.474C152.009 131.836 151.256 132.145 150.524 132.408L153.321 134.49L154.919 134.49L152.785 131.474ZM142.315 122.544C143.843 127.847 148.63 130.873 152.826 129.664C157.023 128.454 159.464 123.344 157.936 118.042C156.408 112.739 151.621 109.713 147.424 110.923C143.228 112.132 140.787 117.242 142.315 122.544ZM148.497 127.127C148.074 126.976 147.854 126.511 148.005 126.088L149.943 120.654L147.994 114.411C147.861 113.982 148.1 113.526 148.528 113.393C148.957 113.259 149.413 113.498 149.546 113.926L151.576 120.429C151.629 120.597 151.625 120.778 151.566 120.944L149.536 126.634C149.385 127.057 148.92 127.278 148.497 127.127Z" fill="#E5322B"/>
<path d="M133.825 114.723C132.996 115.067 132.014 114.668 131.931 113.774C131.748 111.824 132.679 109.986 134.377 109.282C136.075 108.578 138.033 109.218 139.285 110.725C139.858 111.416 139.447 112.392 138.618 112.736L133.825 114.723Z" fill="#E5322B"/>
<path d="M144.22 109.918C143.352 110.148 142.432 109.621 142.482 108.724C142.592 106.757 143.845 105.036 145.723 104.538C147.601 104.04 149.543 104.913 150.613 106.567C151.101 107.321 150.563 108.235 149.696 108.465L144.22 109.918Z" fill="#E5322B"/>
<path fill-rule="evenodd" clip-rule="evenodd" d="M88.9878 65.8192C89.1407 66.2413 88.9224 66.7074 88.5002 66.8602L86.3896 67.6244C85.9675 67.7772 85.5015 67.5589 85.3486 67.1368C85.1958 66.7147 85.4141 66.2486 85.8362 66.0958L87.9468 65.3316C88.3689 65.1788 88.835 65.3971 88.9878 65.8192ZM102.748 70.9349C103.002 71.305 102.908 71.811 102.538 72.0652L100.266 73.626C99.8957 73.8801 99.3897 73.7862 99.1355 73.4162C98.8813 73.0461 98.9753 72.5401 99.3453 72.2859L101.618 70.7252C101.988 70.471 102.494 70.5649 102.748 70.9349ZM94.5222 74.4742C94.5572 74.9217 94.2228 75.313 93.7753 75.348L87.8757 75.8098C87.4281 75.8448 87.0369 75.5104 87.0019 75.0629C86.9668 74.6153 87.3012 74.2241 87.7488 74.1891L93.6484 73.7273C94.0959 73.6922 94.4872 74.0266 94.5222 74.4742ZM81.845 76.7498C82.2927 76.7838 82.628 77.1742 82.594 77.6219C82.4087 80.0605 83.118 81.1149 83.8127 81.5799C84.5709 82.0875 85.5944 82.0911 86.3399 81.89C86.7734 81.7731 87.2195 82.0297 87.3364 82.4631C87.4533 82.8965 87.1968 83.3427 86.7633 83.4596C85.754 83.7319 84.1948 83.792 82.9084 82.9309C81.5584 82.0272 80.7611 80.2878 80.973 77.4987C81.007 77.0511 81.3974 76.7158 81.845 76.7498Z" fill="black"/>
</svg>
