<svg width="72" height="96" viewBox="0 0 72 96" fill="none" xmlns="http://www.w3.org/2000/svg">
<path d="M69.1445 25.2299C68.4141 22.7256 67.2663 20.2212 65.9098 17.8212C65.7011 17.4038 65.4924 17.1951 65.4924 17.1951C55.3706 0.290785 33.5619 -5.03095 16.9706 5.19513C0.379327 15.4212 -5.04675 37.4386 5.17934 54.2386C14.0489 68.9517 31.6837 74.8995 47.1271 69.369C43.5793 83.8734 36.588 95.2473 36.588 95.2473C77.2837 68.8473 73.8402 39.1082 69.1445 25.2299ZM35.9619 50.0647C28.7619 50.0647 23.0228 44.2212 23.0228 37.0212C23.0228 29.8212 28.8663 23.9777 35.9619 23.9777C43.1619 23.9777 48.9011 29.8212 48.9011 37.0212C48.9011 44.2212 43.0576 50.0647 35.9619 50.0647Z" fill="#E5322B"/>
</svg>
