<svg width="183" height="190" viewBox="0 0 183 190" fill="none" xmlns="http://www.w3.org/2000/svg">
<path d="M58.9199 132.772C58.9199 132.772 56.6941 167.047 58.3152 174.645C85.2359 176.653 90.2046 168.468 111.648 166.568C112.202 151.542 112.116 142.976 109.783 126.83L124.893 118.809C120.757 109.909 114.981 104.002 106.219 99.7104C89.8823 119.618 66.7113 107.218 57.1679 98.5296C48.6448 102.024 38.829 107.96 34.8668 118.971L58.9199 132.772Z" fill="black"/>
<path fill-rule="evenodd" clip-rule="evenodd" d="M56.8361 97.72C57.1487 97.5919 57.5072 97.6551 57.7571 97.8826C62.4478 102.153 70.4844 107.324 79.3077 108.983C88.0689 110.631 97.6059 108.827 105.543 99.1553C105.8 98.8416 106.239 98.7461 106.604 98.9246C115.547 103.305 121.466 109.36 125.686 118.441C125.692 118.454 125.698 118.468 125.704 118.481C127.787 123.634 128.788 131.71 129.183 139.759C129.58 147.839 129.369 156.012 128.972 161.432C128.851 163.083 128.582 164.322 128.122 165.227C127.64 166.176 126.956 166.741 126.107 167.017C125.318 167.273 124.443 167.258 123.619 167.207C123.358 167.191 123.099 167.171 122.84 167.152C122.231 167.105 121.616 167.057 120.943 167.057C117.542 167.055 114.504 167.194 111.741 167.438C111.736 167.439 111.731 167.439 111.726 167.44C110.719 167.529 109.749 167.632 108.812 167.747C104.613 168.264 101.068 169.028 97.8044 169.883C95.6541 170.447 93.6242 171.051 91.6051 171.652C90.1681 172.08 88.7365 172.506 87.2708 172.915C86.1464 173.229 85.0056 173.531 83.8314 173.814C77.3186 175.384 69.7638 176.376 58.2502 175.517C57.8626 175.488 57.5406 175.207 57.4595 174.827C57.0324 172.825 56.8701 169.168 56.8508 164.901C56.8315 160.602 56.9582 155.592 57.1353 150.827C57.3124 146.061 57.5403 141.534 57.7238 138.199C57.8156 136.531 57.8963 135.161 57.9541 134.207C57.9775 133.82 57.9972 133.502 58.0123 133.26L34.4314 119.73C34.0634 119.518 33.8999 119.074 34.0436 118.674C38.1342 107.307 48.2439 101.243 56.8361 97.72ZM58.9199 132.773C59.7931 132.829 59.7931 132.829 59.7931 132.83L59.7686 133.214C59.7527 133.466 59.7297 133.838 59.7009 134.313C59.6432 135.264 59.5627 136.631 59.4712 138.295C59.288 141.623 59.0607 146.14 58.8841 150.892C58.7074 155.646 58.5816 160.629 58.6008 164.893C58.6181 168.724 58.7531 171.903 59.054 173.821C70.2696 174.597 77.5705 173.565 83.9432 171.985C84.914 171.744 85.8629 171.491 86.8006 171.229C88.2266 170.831 89.6328 170.413 91.0545 169.989C93.0947 169.381 95.167 168.764 97.3763 168.186C100.671 167.323 104.266 166.548 108.521 166.02C109.261 165.928 110.021 165.844 110.802 165.768C111.322 151.251 111.201 142.758 108.917 126.955C108.865 126.59 109.047 126.23 109.373 126.057L109.375 126.056L123.744 118.429C119.818 110.332 114.441 104.854 106.447 100.802C98.1338 110.569 88.114 112.42 78.9843 110.703C70.0101 109.016 61.8972 103.892 56.9937 99.5491C48.8528 102.962 39.8546 108.571 35.9472 118.582L59.3554 132.014C59.6449 132.18 59.8147 132.496 59.7931 132.83L58.9199 132.773ZM124.426 120.048L110.737 127.315C112.943 142.782 113.066 151.341 112.558 165.614C115.107 165.416 117.883 165.305 120.944 165.307C121.687 165.307 122.41 165.363 123.043 165.411C123.285 165.43 123.515 165.448 123.727 165.461C124.544 165.511 125.122 165.497 125.566 165.353C125.95 165.228 126.279 164.991 126.562 164.434C126.867 163.834 127.113 162.865 127.227 161.304C127.619 155.951 127.828 147.849 127.435 139.844C127.065 132.293 126.162 124.936 124.426 120.048Z" fill="black"/>
<path d="M111.648 166.568C114.439 166.321 116.636 175.366 120.07 175.368C122.499 175.369 141.215 166.65 140.399 162.519C139.879 159.887 127.916 163.868 128.1 161.368C128.889 150.595 128.938 128.817 124.893 118.809L109.783 126.83C112.116 142.976 112.202 151.542 111.648 166.568Z" fill="white"/>
<path fill-rule="evenodd" clip-rule="evenodd" d="M56.8361 97.72C57.1487 97.5919 57.5072 97.6551 57.7571 97.8826C62.4478 102.153 70.4844 107.324 79.3077 108.983C88.0689 110.631 97.6059 108.827 105.543 99.1553C105.8 98.8416 106.239 98.7461 106.604 98.9246C115.547 103.305 121.466 109.36 125.686 118.441C125.692 118.454 125.698 118.468 125.704 118.481C127.787 123.634 128.788 131.71 129.183 139.759C129.575 147.751 129.374 155.835 128.985 161.255C129.152 161.306 129.441 161.35 129.886 161.358C130.884 161.375 132.249 161.216 133.736 161.042L133.884 161.025C135.382 160.85 136.989 160.667 138.258 160.706C138.888 160.725 139.516 160.799 140.033 161.002C140.567 161.211 141.113 161.62 141.257 162.349C141.428 163.211 141.068 164.048 140.579 164.755C140.077 165.481 139.336 166.219 138.469 166.942C136.729 168.392 134.335 169.9 131.875 171.259C129.407 172.622 126.838 173.854 124.727 174.748C123.672 175.194 122.722 175.56 121.95 175.816C121.222 176.058 120.535 176.243 120.069 176.243C118.813 176.242 117.809 175.421 117.037 174.531C116.245 173.618 115.523 172.426 114.866 171.322C114.817 171.24 114.769 171.159 114.721 171.078C114.1 170.033 113.537 169.085 112.976 168.386C112.677 168.013 112.413 167.756 112.184 167.602C111.962 167.453 111.819 167.431 111.726 167.44C103.226 168.193 97.372 169.935 91.6051 171.652C90.1681 172.08 88.7365 172.506 87.2708 172.915C79.9008 174.971 71.8263 176.53 58.2502 175.517C57.8627 175.488 57.5406 175.207 57.4595 174.827C57.0324 172.825 56.8701 169.168 56.8508 164.901C56.8315 160.602 56.9582 155.592 57.1353 150.827C57.3124 146.061 57.5403 141.534 57.7238 138.199C57.8156 136.531 57.8963 135.161 57.9541 134.207C57.9775 133.82 57.9972 133.502 58.0123 133.26L34.4314 119.73C34.0634 119.518 33.8999 119.074 34.0436 118.674C38.1342 107.307 48.2439 101.243 56.8361 97.72ZM58.9199 132.773C59.7931 132.829 59.7931 132.829 59.7931 132.83L59.7686 133.214C59.7527 133.466 59.7297 133.838 59.7009 134.313C59.6432 135.264 59.5627 136.631 59.4712 138.295C59.288 141.623 59.0607 146.14 58.8841 150.892C58.7074 155.646 58.5816 160.629 58.6008 164.893C58.6181 168.724 58.7531 171.903 59.054 173.821C71.9915 174.716 79.7172 173.205 86.8006 171.229C88.2266 170.831 89.6328 170.413 91.0545 169.989C96.6664 168.318 102.521 166.574 110.802 165.768C111.322 151.251 111.201 142.758 108.917 126.955C108.865 126.59 109.047 126.23 109.373 126.057L123.744 118.429C119.818 110.332 114.441 104.854 106.447 100.802C98.1338 110.569 88.1141 112.42 78.9844 110.703C70.0102 109.016 61.8972 103.892 56.9938 99.5491C48.8528 102.962 39.8546 108.571 35.9472 118.582L59.3554 132.014C59.6449 132.18 59.8147 132.496 59.7931 132.83L58.9199 132.773ZM124.426 120.048L110.737 127.315C112.955 142.861 113.067 151.428 112.551 165.833C112.768 165.914 112.971 166.023 113.158 166.148C113.596 166.442 113.989 166.851 114.341 167.291C114.983 168.092 115.609 169.146 116.209 170.155C116.263 170.246 116.316 170.337 116.37 170.427C117.04 171.554 117.686 172.608 118.359 173.384C119.051 174.182 119.609 174.493 120.07 174.493C120.212 174.493 120.641 174.407 121.399 174.155C122.112 173.919 123.016 173.571 124.045 173.136C126.101 172.266 128.615 171.06 131.029 169.727C133.449 168.39 135.733 166.944 137.348 165.597C138.159 164.922 138.765 164.301 139.14 163.759C139.513 163.22 139.57 162.886 139.544 162.709C139.524 162.692 139.481 162.665 139.394 162.631C139.158 162.538 138.768 162.472 138.206 162.455C137.091 162.421 135.622 162.584 134.087 162.763C134.014 162.772 133.94 162.78 133.867 162.789C132.445 162.955 130.975 163.127 129.856 163.107C129.28 163.097 128.681 163.037 128.204 162.829C127.955 162.721 127.687 162.549 127.49 162.273C127.281 161.981 127.202 161.643 127.227 161.304C127.619 155.951 127.828 147.848 127.435 139.844C127.065 132.293 126.162 124.936 124.426 120.048ZM139.558 162.724C139.557 162.725 139.553 162.721 139.549 162.712C139.557 162.72 139.559 162.724 139.558 162.724Z" fill="black"/>
<path d="M94.9541 176.021L90.3332 166.779C90.0007 166.114 90.4842 165.331 91.2276 165.331H124.126C124.87 165.331 125.353 166.114 125.021 166.779L120.4 176.021C120.23 176.359 119.884 176.573 119.505 176.573H95.8485C95.4698 176.573 95.1235 176.359 94.9541 176.021Z" fill="#E5E5E5"/>
<path fill-rule="evenodd" clip-rule="evenodd" d="M91.2275 166.206C91.1346 166.206 91.0742 166.304 91.1157 166.387L95.7367 175.629C95.7578 175.672 95.8011 175.698 95.8485 175.698H119.505C119.552 175.698 119.596 175.672 119.617 175.629L124.238 166.387C124.279 166.304 124.219 166.206 124.126 166.206H91.2275ZM89.5505 167.17C88.9271 165.923 89.8337 164.456 91.2275 164.456H124.126C125.52 164.456 126.426 165.923 125.803 167.17L121.182 176.412C120.865 177.047 120.215 177.448 119.505 177.448H95.8485C95.1383 177.448 94.489 177.047 94.1714 176.412L89.5505 167.17Z" fill="black"/>
<path d="M129.292 166.301L120.472 169.451C119.683 169.733 118.918 168.979 119.189 168.186L128.183 141.895C128.471 141.055 129.627 140.978 130.024 141.771L134.396 150.515C134.512 150.748 134.533 151.016 134.455 151.264L129.909 165.661C129.815 165.959 129.586 166.196 129.292 166.301Z" fill="#E5E5E5"/>
<path fill-rule="evenodd" clip-rule="evenodd" d="M127.355 141.611C127.894 140.038 130.063 139.892 130.807 141.38L130.024 141.771L130.807 141.38L135.179 150.124C135.396 150.56 135.436 151.063 135.29 151.527L130.743 165.924C130.566 166.484 130.138 166.928 129.586 167.125L120.766 170.275C119.287 170.804 117.853 169.389 118.361 167.903L127.355 141.611ZM129.051 142.117C129.04 142.125 129.024 142.14 129.011 142.178L120.017 168.469C120.005 168.503 120.008 168.524 120.011 168.539C120.016 168.557 120.027 168.579 120.047 168.599C120.067 168.618 120.089 168.629 120.108 168.634C120.122 168.638 120.143 168.639 120.177 168.627L128.997 165.477C129.034 165.464 129.063 165.435 129.074 165.397L133.621 151C133.631 150.969 133.628 150.936 133.613 150.907L129.241 142.163C129.224 142.127 129.206 142.114 129.193 142.107C129.177 142.098 129.152 142.092 129.121 142.094C129.091 142.096 129.067 142.106 129.051 142.117Z" fill="black"/>
<path fill-rule="evenodd" clip-rule="evenodd" d="M137.053 172.84C137.057 172.832 137.058 172.823 137.058 172.82C137.058 172.82 137.058 172.817 137.057 172.811C137.055 172.806 137.053 172.801 137.051 172.797C137.046 172.788 137.041 172.784 137.037 172.782C137.035 172.781 137.031 172.779 137.025 172.778C137.023 172.777 137.021 172.777 137.018 172.777C137.013 172.777 137.008 172.777 137.003 172.778C136.999 172.779 136.997 172.779 136.996 172.78C136.995 172.78 136.995 172.78 136.995 172.781C136.994 172.782 136.992 172.783 136.99 172.785C136.985 172.79 136.98 172.797 136.976 172.804C136.973 172.811 136.971 172.816 136.971 172.82C136.97 172.823 136.97 172.824 136.97 172.824C136.97 172.825 136.971 172.832 136.98 172.843C136.985 172.849 136.992 172.855 136.998 172.859C137.001 172.86 137.002 172.861 137.004 172.862C137.005 172.863 137.006 172.863 137.006 172.863C137.006 172.863 137.005 172.863 137.004 172.862C137.007 172.863 137.015 172.864 137.024 172.862C137.028 172.861 137.031 172.86 137.034 172.859C137.037 172.857 137.039 172.856 137.041 172.854C137.045 172.851 137.049 172.847 137.053 172.84ZM135.308 172.82C135.308 171.71 136.351 170.895 137.428 171.165C138.965 171.549 139.194 173.637 137.777 174.346C136.643 174.913 135.308 174.088 135.308 172.82ZM127.704 176.293C127.684 176.288 127.666 176.273 127.659 176.251L127.704 176.293ZM126.784 174.828C127.709 174.212 128.968 174.643 129.319 175.698C129.74 176.96 128.601 178.189 127.311 177.867C125.891 177.512 125.566 175.64 126.784 174.828ZM152.974 177.376C152.974 177.289 152.882 177.232 152.804 177.271C152.774 177.286 152.762 177.301 152.755 177.313C152.746 177.328 152.739 177.35 152.739 177.376C152.739 177.402 152.746 177.424 152.755 177.439C152.762 177.451 152.774 177.467 152.804 177.481C152.882 177.52 152.974 177.464 152.974 177.376ZM152.021 175.706C153.263 175.085 154.724 175.988 154.724 177.376C154.724 178.765 153.263 179.668 152.021 179.047C150.645 178.358 150.645 176.394 152.021 175.706ZM127.659 176.251C127.657 176.247 127.655 176.232 127.659 176.215L127.659 176.251ZM127.659 176.215C127.662 176.201 127.668 176.193 127.673 176.188L127.659 176.215ZM127.673 176.188C127.675 176.185 127.679 176.181 127.684 176.178L127.673 176.188ZM127.684 176.178C127.688 176.176 127.693 176.174 127.699 176.172L127.684 176.178ZM127.699 176.172C127.716 176.167 127.73 176.168 127.735 176.169L127.699 176.172ZM87.2902 180.862C87.3347 180.862 87.3789 180.844 87.4123 180.811C87.4308 180.793 87.4513 180.758 87.4587 180.716C87.4652 180.678 87.4594 180.646 87.4497 180.623C87.44 180.599 87.4218 180.573 87.3904 180.551C87.3886 180.55 87.3867 180.548 87.3848 180.547C87.351 180.525 87.3149 180.516 87.2902 180.516C87.266 180.516 87.222 180.527 87.1822 180.558C87.1779 180.562 87.1738 180.565 87.1701 180.569C87.1441 180.593 87.131 180.619 87.1249 180.639C87.1178 180.662 87.1146 180.696 87.1279 180.738C87.1436 180.786 87.1742 180.819 87.1944 180.833C87.2236 180.852 87.257 180.862 87.2902 180.862ZM86.1749 179.574C86.7065 179.042 87.5395 178.959 88.1651 179.377C89.4636 180.242 88.8507 182.266 87.2902 182.266C85.885 182.266 85.1812 180.567 86.1749 179.574ZM140.21 181.344C140.21 181.344 140.21 181.343 140.21 181.343C140.211 181.343 140.211 181.343 140.211 181.343C140.211 181.34 140.212 181.336 140.212 181.333M140.21 181.344C140.21 181.344 140.21 181.344 140.21 181.344C140.208 181.346 140.206 181.347 140.204 181.348C140.202 181.349 140.2 181.35 140.199 181.35L140.198 181.35L140.197 181.35C140.196 181.35 140.195 181.349 140.192 181.348C140.191 181.348 140.19 181.347 140.189 181.346C140.188 181.346 140.187 181.345 140.186 181.344C140.186 181.344 140.186 181.344 140.186 181.344C140.186 181.344 140.186 181.343 140.186 181.343C140.186 181.343 140.186 181.343 140.186 181.343C140.185 181.342 140.185 181.341 140.185 181.339C140.184 181.337 140.184 181.335 140.184 181.333C140.184 181.33 140.184 181.328 140.185 181.327C140.185 181.327 140.185 181.327 140.186 181.326C140.186 181.326 140.188 181.325 140.189 181.324C140.192 181.322 140.195 181.321 140.198 181.32C140.201 181.321 140.204 181.322 140.207 181.324C140.209 181.325 140.21 181.326 140.211 181.326C140.211 181.327 140.211 181.327 140.212 181.327M138.755 180.373C139.441 179.343 140.955 179.343 141.641 180.373C142.41 181.525 141.583 183.069 140.198 183.069C138.813 183.069 137.986 181.525 138.755 180.373ZM100.06 184.136C100.096 184.112 100.121 184.072 100.121 184.024C100.121 183.961 100.08 183.913 100.028 183.895C99.991 183.883 99.948 183.886 99.9105 183.911C99.8949 183.922 99.8745 183.943 99.8619 183.973C99.854 183.991 99.8508 184.009 99.8505 184.024C99.8504 184.03 99.8507 184.036 99.8515 184.042C99.854 184.06 99.8618 184.083 99.8795 184.105C99.8996 184.13 99.9249 184.146 99.9427 184.152C99.9847 184.166 100.027 184.158 100.06 184.136ZM98.3706 184.024C98.3706 182.921 99.4504 182.143 100.496 182.492C101.771 182.917 101.999 184.622 100.881 185.367C99.808 186.083 98.3706 185.313 98.3706 184.024Z" fill="black"/>
<path d="M147.498 153.009C143.354 149.655 137.059 148.192 133.847 153.009C130.635 157.827 129.832 167.463 133.847 169.872C137.862 172.281 154.083 158.34 147.498 153.009Z" fill="white"/>
<path fill-rule="evenodd" clip-rule="evenodd" d="M140.387 149.072C143.098 149.271 145.872 150.568 148.048 152.329C149.024 153.119 149.604 154.097 149.824 155.19C150.041 156.266 149.9 157.396 149.54 158.503C148.824 160.701 147.187 162.981 145.276 164.952C143.355 166.933 141.085 168.676 139.01 169.776C137.974 170.325 136.954 170.733 136.026 170.916C135.117 171.096 134.168 171.085 133.397 170.622C132.155 169.877 131.351 168.613 130.871 167.175C130.391 165.733 130.21 164.044 130.262 162.317C130.366 158.879 131.403 155.098 133.119 152.524C134.929 149.81 137.634 148.87 140.387 149.072ZM140.259 150.818C138.025 150.654 135.977 151.391 134.575 153.495C133.079 155.739 132.108 159.184 132.011 162.37C131.963 163.956 132.134 165.429 132.531 166.622C132.93 167.818 133.532 168.662 134.297 169.122C134.53 169.261 134.966 169.342 135.687 169.199C136.389 169.06 137.243 168.732 138.19 168.23C140.08 167.228 142.206 165.604 144.019 163.734C145.842 161.855 147.277 159.801 147.876 157.961C148.173 157.049 148.25 156.234 148.109 155.536C147.972 154.856 147.618 154.232 146.947 153.69C144.98 152.097 142.535 150.985 140.259 150.818Z" fill="black"/>
<path fill-rule="evenodd" clip-rule="evenodd" d="M112.749 83.363C112.95 82.6978 113.633 82.3561 114.264 82.5254L138.217 88.9436C139.541 89.2982 140.326 90.6586 139.972 91.9821C139.617 93.3057 138.257 94.0911 136.933 93.7365L114.813 87.8094C114.606 87.7539 114.46 87.6427 114.384 87.5773C114.297 87.5036 114.226 87.4235 114.17 87.3543C114.059 87.2158 113.954 87.0514 113.86 86.8896C113.671 86.5612 113.475 86.1499 113.303 85.7447C113.131 85.3381 112.973 84.9126 112.864 84.5504C112.81 84.3709 112.763 84.1898 112.734 84.0255C112.72 83.9435 112.707 83.8506 112.704 83.7551C112.7 83.6723 112.701 83.5247 112.749 83.363ZM114.673 84.4467C114.744 84.6421 114.826 84.8523 114.915 85.0625C115.07 85.4285 115.234 85.7694 115.376 86.0145C115.414 86.0809 115.447 86.134 115.475 86.1749L137.386 92.0461C137.776 92.1506 138.177 91.9192 138.281 91.5292C138.386 91.1393 138.154 90.7384 137.764 90.6339L114.673 84.4467Z" fill="#FF0000"/>
<path fill-rule="evenodd" clip-rule="evenodd" d="M108.282 87.6475C108.751 85.8957 110.552 84.856 112.304 85.3254L137.386 92.0462C138.71 92.4008 139.495 93.7612 139.14 95.0848C138.786 96.4083 137.425 97.1937 136.102 96.8391L109.468 89.7027C108.573 89.4628 108.042 88.5427 108.282 87.6475ZM109.992 88.0313L136.555 95.1487C136.945 95.2532 137.346 95.0218 137.45 94.6318C137.555 94.2419 137.323 93.841 136.933 93.7366L111.851 87.0158C111.056 86.8028 110.239 87.2551 109.992 88.0313Z" fill="#FF0000"/>
<path fill-rule="evenodd" clip-rule="evenodd" d="M106.009 87.8698C106.134 87.4031 106.614 87.1261 107.081 87.2511L136.555 95.1486C137.022 95.2737 137.299 95.7535 137.173 96.2203L136.389 99.147C135.549 102.281 132.328 104.141 129.194 103.301L109.379 97.9919C106.245 97.1521 104.385 93.9306 105.225 90.7965L106.009 87.8698ZM107.473 89.168L106.915 91.2495C106.326 93.45 107.632 95.7119 109.832 96.3015L129.647 101.611C131.847 102.2 134.109 100.895 134.699 98.694L135.257 96.6125L107.473 89.168Z" fill="#FF0000"/>
<path d="M128.156 95.4668L137.991 89.7888L122.478 85.6322L128.156 95.4668Z" fill="white"/>
<path fill-rule="evenodd" clip-rule="evenodd" d="M111.461 76.7757C114.817 74.8473 120.052 74.1005 125.591 75.5847C130.083 76.7882 133.742 78.9068 136.113 81.4514C138.482 83.9928 139.631 87.0465 138.836 90.0152C138.776 90.2394 138.629 90.4305 138.428 90.5466L128.594 96.2246C128.393 96.3406 128.154 96.372 127.93 96.312C127.705 96.2519 127.514 96.1053 127.398 95.9043L121.902 86.3836L114.495 84.3991C114.029 84.274 113.752 83.7942 113.877 83.3274C113.931 83.1229 113.859 82.7853 113.479 82.3128C113.122 81.869 112.63 81.4847 112.295 81.2769C111.967 81.0736 111.811 80.6795 111.911 80.3068C112.169 79.3459 111.611 78.4698 111.294 78.1685C111.094 77.9782 110.996 77.7045 111.028 77.4303C111.061 77.156 111.222 76.9133 111.461 76.7757ZM124.292 87.0241L128.476 94.2715L135.724 90.0872L124.292 87.0241ZM137.305 88.6991L131.726 87.2042L131.863 87.1248C132.282 86.8832 132.425 86.3481 132.183 85.9296C131.942 85.511 131.407 85.3677 130.988 85.6093L130.005 86.1771C129.818 86.2849 129.686 86.4513 129.619 86.6396L117.74 83.4567C118.01 83.367 118.23 83.1477 118.31 82.8526L118.517 82.077C118.642 81.6102 118.365 81.1304 117.899 81.0053C117.432 80.8802 116.952 81.1572 116.827 81.624L116.619 82.3997C116.54 82.6948 116.622 82.9951 116.81 83.2077L115.625 82.89C115.539 82.2239 115.184 81.641 114.843 81.2161C114.498 80.7874 114.086 80.4165 113.714 80.1333C113.797 79.2347 113.538 78.4423 113.208 77.8446C116.132 76.5098 120.463 76.0222 125.138 77.2751C125.778 77.4465 126.398 77.6371 126.996 77.8448C126.978 78.0209 127.014 78.2041 127.109 78.3691L127.677 79.3525C127.918 79.771 128.454 79.9144 128.872 79.6728C129.196 79.486 129.355 79.1239 129.299 78.7758C131.6 79.8483 133.475 81.1878 134.833 82.6446C136.668 84.6135 137.509 86.7305 137.305 88.6991ZM121.584 77.2703C122.003 77.0286 122.538 77.172 122.779 77.5905L123.347 78.574C123.589 78.9925 123.445 79.5276 123.027 79.7693C122.608 80.0109 122.073 79.8675 121.832 79.449L121.264 78.4655C121.022 78.047 121.166 77.5119 121.584 77.2703ZM115.739 77.3667C116.158 77.1251 116.693 77.2685 116.934 77.687L117.502 78.6704C117.744 79.089 117.6 79.6241 117.182 79.8657C116.763 80.1073 116.228 79.964 115.987 79.5454L115.419 78.562C115.177 78.1435 115.321 77.6083 115.739 77.3667ZM130.896 81.4279C131.137 81.8464 130.994 82.3816 130.575 82.6232L129.592 83.191C129.173 83.4326 128.638 83.2892 128.397 82.8707C128.155 82.4522 128.298 81.9171 128.717 81.6754L129.7 81.1076C130.119 80.866 130.654 81.0094 130.896 81.4279ZM124.136 81.0141C124.603 81.1392 124.88 81.619 124.755 82.0857L124.547 82.8614C124.422 83.3282 123.942 83.6052 123.476 83.4801C123.009 83.355 122.732 82.8752 122.857 82.4084L123.065 81.6328C123.19 81.166 123.67 80.889 124.136 81.0141ZM133.939 83.9059C134.357 83.6643 134.892 83.8076 135.134 84.2262L135.702 85.2096C135.943 85.6281 135.8 86.1633 135.381 86.4049C134.963 86.6465 134.428 86.5031 134.186 86.0846L133.618 85.1012C133.377 84.6826 133.52 84.1475 133.939 83.9059Z" fill="#FF0000"/>
<path d="M102.832 39.2157C109.402 41.3848 111.103 51.5777 111.133 56.4029C115.081 46.5051 115.385 26.2126 85.0121 24.2247C82.0184 24.0288 79.3496 24.0911 76.9759 24.3746C73.8504 24.7478 71.2364 25.5047 69.0659 26.5606C56.1606 32.8389 58.9298 49.6908 63.0448 59.3698C62.6492 52.958 68.0253 53.1627 70.7628 54.0665C77.9345 55.5549 95.1303 44.7861 102.832 39.2157Z" fill="black"/>
<path d="M60.0285 10.4802C49.4847 16.9232 61.6601 23.8851 69.0659 26.5606C71.2364 25.5047 73.8504 24.7478 76.9759 24.3746C75.7201 17.0585 70.5724 4.03712 60.0285 10.4802Z" fill="black"/>
<path d="M58.7283 132.847L62.9074 150.694C68.7966 148.947 91.3917 117.209 109.472 101.384C108.455 100.807 107.46 100.265 106.494 99.7565C89.9911 119.674 66.6084 107.287 56.9798 98.6043C48.374 102.104 38.462 108.046 34.456 119.059L58.7283 132.847Z" fill="black"/>
<path fill-rule="evenodd" clip-rule="evenodd" d="M66.7633 9.75939C65.0477 9.3886 62.9771 9.70372 60.4847 11.2268C57.9471 12.7774 56.99 14.2317 56.8174 15.4567C56.6447 16.6819 57.2132 17.9865 58.4598 19.3405C60.8868 21.9769 65.4046 24.267 69.0222 25.6127C70.9969 24.6975 73.2931 24.0216 75.9458 23.6293C75.2377 20.1497 73.7207 15.7609 71.3089 12.8228C70.0071 11.2371 68.4946 10.1336 66.7633 9.75939ZM77.6882 23.4179C76.9621 19.7701 75.3576 14.9968 72.6615 11.7125C71.2013 9.93374 69.3715 8.53272 67.1329 8.04889C64.8786 7.56165 62.3518 8.035 59.5722 9.73348C56.8379 11.4043 55.363 13.2364 55.0845 15.2125C54.806 17.1884 55.7672 18.9996 57.1723 20.5258C59.5496 23.1082 63.5586 25.2771 67.0012 26.6989C61.4223 30.156 59.1832 35.773 58.7995 41.6327C58.3852 47.9603 60.1154 54.6675 62.1819 59.5759C62.443 63.0233 64.273 65.2564 66.4327 66.6111C68.1777 67.7057 70.1422 68.2346 71.7058 68.419C71.368 70.4797 71.5246 72.4942 72.2963 74.3613C72.4676 78.2831 72.5341 82.6013 72.3335 86.1364C72.2317 87.9305 72.0626 89.495 71.8119 90.6935C71.6866 91.2931 71.5456 91.7774 71.3938 92.1429C71.2365 92.5221 71.0967 92.7019 71.0154 92.771C70.9541 92.8232 70.809 92.9165 70.5308 93.0444C70.2638 93.1673 69.92 93.3016 69.4974 93.4507C68.677 93.7401 67.6227 94.0633 66.3671 94.4481L66.2428 94.4862C63.6375 95.2848 60.2593 96.326 56.6501 97.7937C47.9774 101.32 37.7696 107.389 33.6336 118.76C32.6301 121.519 31.989 124.578 31.8117 127.972C31.0675 142.225 33.8202 154.1 38.6508 162.435C43.478 170.764 50.4475 175.643 58.0988 175.596C63.9526 175.561 73.7713 175.094 84.903 166.352C95.9585 157.67 108.217 140.899 119.265 108.543C119.303 108.526 119.344 108.508 119.387 108.489C119.692 108.352 120.13 108.154 120.664 107.902C121.73 107.4 123.182 106.687 124.722 105.841C126.26 104.998 127.9 104.015 129.336 102.974C130.757 101.944 132.047 100.81 132.817 99.6471C133.226 99.0312 133.519 98.3541 133.589 97.6313C133.66 96.8931 133.492 96.1627 133.064 95.4745C132.239 94.1484 130.489 93.0368 127.773 92.0856C125.224 91.1926 122.236 91.8721 119.107 93.4388C116.091 94.9488 112.793 97.3576 109.364 100.319C108.526 99.8497 107.704 99.4042 106.901 98.982C102.032 96.4217 97.8563 94.7149 95.0083 93.8013L94.5634 86.5898C98.1098 86.1013 101.005 84.0553 103.322 81.2477C105.985 79.5696 107.959 77.6166 109.044 75.484C110.11 73.3877 110.298 71.1474 109.47 68.9367C110.827 64.5688 111.631 60.1335 111.991 56.612C113.992 51.5224 115.076 43.7662 111.728 36.9613C108.318 30.0319 100.453 24.3584 85.0692 23.3515C82.3654 23.1746 79.9115 23.2043 77.6882 23.4179ZM111.599 51.7719C112.482 47.462 112.417 42.3258 110.158 37.7339C107.113 31.5455 99.9435 26.0788 84.9549 25.0978C82.0064 24.9048 79.3922 24.9671 77.0796 25.2433C74.035 25.607 71.5179 26.3407 69.4486 27.3474C63.3619 30.3085 60.9386 35.7481 60.5458 41.747C60.2328 46.5266 61.2211 51.5975 62.6523 55.865C62.7371 55.6595 62.8322 55.464 62.9372 55.2783C63.5402 54.2122 64.4302 53.5414 65.4114 53.1594C67.2963 52.4254 69.5255 52.7461 70.9864 53.219C72.5451 53.5271 74.7649 53.1929 77.4466 52.3248C80.1236 51.4582 83.1385 50.1012 86.1949 48.5118C92.3057 45.3339 98.4932 41.2738 102.319 38.5067C102.547 38.342 102.839 38.2967 103.106 38.3848C106.774 39.5956 108.974 43.0022 110.257 46.513C110.893 48.2555 111.324 50.0759 111.599 51.7719ZM69.8724 54.7209C68.6736 54.4266 67.2051 54.3389 66.0463 54.7901C65.3907 55.0454 64.8398 55.4692 64.4605 56.1398C64.0749 56.8214 63.8264 57.8301 63.9181 59.3158C64.0956 62.1935 65.5641 64.0005 67.3626 65.1286C68.7192 65.9795 70.2587 66.4365 71.5419 66.6314C70.2669 62.2033 69.8346 57.9035 69.8724 54.7209ZM71.6202 55.0608C71.6156 58.3434 72.1286 62.8295 73.5913 67.3508C73.6407 67.5035 73.6471 67.6669 73.6099 67.8231C73.0916 69.9968 73.1884 72.0215 73.9665 73.8176C74.9742 76.1441 77.1942 78.2397 81.0957 79.7674C81.1919 79.8051 81.2807 79.8595 81.3579 79.9281C83.466 81.8014 85.9991 83.3252 89.0381 84.3033C90.685 84.8333 92.1958 85.019 93.5827 84.9307C96.9413 84.7169 99.738 82.8794 102.057 80.0299C102.118 79.9548 102.192 79.8903 102.274 79.8392C104.83 78.2492 106.573 76.4811 107.484 74.6907C108.381 72.9271 108.489 71.1135 107.735 69.3071C107.656 69.1162 107.646 68.9033 107.709 68.7061C109.091 64.3403 109.903 59.8706 110.257 56.3621C110.238 54.0235 109.813 50.399 108.613 47.1135C107.453 43.9386 105.643 41.2714 102.967 40.1963C99.0702 42.9887 93.0101 46.9401 87.0023 50.0644C83.9005 51.6774 80.7904 53.0817 77.9855 53.9897C75.6641 54.7412 73.4633 55.183 71.6202 55.0608ZM92.817 86.7013C91.4482 86.6905 90.0099 86.4545 88.5019 85.9691C85.2767 84.9311 82.5702 83.3193 80.3125 81.3396C77.633 80.2707 75.5901 78.9021 74.1514 77.2902C74.2344 80.3637 74.235 83.5156 74.0807 86.2356C73.9768 88.0666 73.8013 89.7298 73.5249 91.0517C73.3867 91.7124 73.2186 92.3115 73.0102 92.8137C72.8074 93.3024 72.536 93.7749 72.1496 94.1037C71.9049 94.312 71.5873 94.4847 71.2621 94.6343C70.9258 94.789 70.5255 94.9437 70.0795 95.1011C69.2237 95.403 68.1378 95.7358 66.9042 96.1138L66.7557 96.1593C64.4805 96.8568 61.6669 97.7241 58.6396 98.8887C63.4706 102.948 71.051 107.51 79.3187 109.045C87.9093 110.641 97.2392 108.979 105.114 100.026C100.406 97.6144 96.4619 96.0622 93.9193 95.2949C93.5689 95.1892 93.3213 94.8765 93.2988 94.5111L92.817 86.7013ZM106.707 100.86C98.3127 110.623 88.2056 112.476 78.9992 110.766C69.9411 109.083 61.7533 103.962 56.8068 99.6214C48.5832 103.039 39.4921 108.655 35.5397 118.668L59.1605 132.086C59.3725 132.207 59.5246 132.41 59.5802 132.648L63.5107 149.433C63.9855 149.133 64.5748 148.683 65.2808 148.065C66.4648 147.028 67.8778 145.608 69.4846 143.882C72.636 140.497 76.4745 135.998 80.7038 131.042L80.9524 130.751C89.2931 120.976 99.1096 109.494 107.97 101.546C107.545 101.311 107.123 101.083 106.707 100.86ZM34.9415 120.341C34.1911 122.674 33.7069 125.239 33.5594 128.064C32.8284 142.06 35.5417 153.581 40.1649 161.558C44.7915 169.54 51.2635 173.888 58.0881 173.846C63.7638 173.812 73.1279 173.374 83.8222 164.976C94.5511 156.55 106.711 140.037 117.733 107.614C117.813 107.379 117.989 107.189 118.217 107.091L118.219 107.091L118.245 107.079L118.333 107.041C118.411 107.007 118.526 106.957 118.674 106.891C118.969 106.759 119.397 106.565 119.918 106.319C120.962 105.828 122.38 105.13 123.88 104.307C125.383 103.483 126.954 102.54 128.31 101.557C129.681 100.563 130.765 99.5769 131.359 98.6803C131.66 98.2263 131.813 97.8208 131.847 97.463C131.88 97.1207 131.811 96.7725 131.578 96.399C131.082 95.6017 129.821 94.657 127.195 93.7372C125.319 93.0801 122.874 93.5099 119.89 95.0037C116.93 96.4856 113.598 98.9361 110.049 102.043C101.066 109.905 90.9414 121.741 82.2836 131.887L82.0159 132.2C77.8026 137.138 73.9432 141.661 70.7654 145.074C69.1433 146.817 67.6836 148.286 66.434 149.381C65.2181 150.446 64.0943 151.255 63.1562 151.533C62.9253 151.602 62.6762 151.572 62.4679 151.451C62.2596 151.33 62.1103 151.128 62.0554 150.894L57.9635 133.419L34.9415 120.341Z" fill="black"/>
<path d="M111.133 56.4029C111.103 51.5777 109.402 41.3848 102.832 39.2157C95.1303 44.7861 77.9345 55.5549 70.7628 54.0665C70.6434 57.4929 71.1134 62.5339 72.7588 67.6202C72.2059 69.9391 72.296 72.1625 73.1636 74.1655C74.2908 76.7676 76.7302 78.9977 80.7767 80.5822C82.9713 82.5323 85.61 84.1192 88.7701 85.1363C90.5103 85.6963 92.131 85.8999 93.6383 85.804C97.3151 85.5699 100.318 83.5537 102.736 80.5822C108.018 77.2968 110.259 73.0854 108.543 68.9703C109.952 64.5208 110.776 59.9708 111.133 56.4029Z" fill="white"/>
<path d="M72.7588 67.6202C71.1134 62.5339 70.6434 57.4929 70.7628 54.0665C68.0253 53.1627 62.6492 52.958 63.0448 59.3698C63.4404 65.7815 69.6856 67.5416 72.7588 67.6202Z" fill="white"/>
<path d="M93.6383 85.804C92.131 85.8999 90.5103 85.6963 88.7701 85.1363C85.61 84.1192 82.9713 82.5323 80.7767 80.5822C76.7302 78.9977 74.2908 76.7676 73.1636 74.1655C73.5174 82.1163 73.4531 91.8455 71.5826 93.4374C70.3587 94.479 64.1187 95.7012 56.9798 98.6043C66.6084 107.287 89.9911 119.674 106.494 99.7565C101.319 97.0352 96.9525 95.2963 94.1722 94.4573L93.6383 85.804Z" fill="white"/>
<path d="M32.6856 128.018C31.2104 156.267 43.6177 174.81 58.0935 174.721C69.6229 174.651 96.4593 172.914 118.561 107.896C118.561 107.896 129.359 103.282 132.088 99.1638C133.506 97.0239 132.826 94.7825 127.484 92.9114C123.059 91.3613 116.618 95.1302 109.472 101.384C91.3917 117.209 68.7966 148.947 62.9074 150.694L58.7283 132.847L34.456 119.059C33.4831 121.734 32.8585 124.707 32.6856 128.018Z" fill="white"/>
<path fill-rule="evenodd" clip-rule="evenodd" d="M66.7633 9.75939C65.0477 9.3886 62.9771 9.70372 60.4847 11.2268C57.9471 12.7774 56.99 14.2317 56.8174 15.4567C56.6447 16.6819 57.2132 17.9865 58.4598 19.3405C60.8868 21.9769 65.4046 24.267 69.0222 25.6127C70.9969 24.6975 73.2931 24.0216 75.9458 23.6293C75.2377 20.1497 73.7207 15.7609 71.3089 12.8228C70.0071 11.2371 68.4946 10.1336 66.7633 9.75939ZM77.6882 23.4179C76.9621 19.7701 75.3576 14.9968 72.6615 11.7125C71.2013 9.93374 69.3715 8.53272 67.1329 8.04889C64.8786 7.56165 62.3518 8.035 59.5722 9.73348C56.8379 11.4043 55.363 13.2364 55.0845 15.2125C54.806 17.1884 55.7672 18.9996 57.1723 20.5258C59.5496 23.1082 63.5586 25.2771 67.0012 26.6989C61.4223 30.156 59.1832 35.773 58.7995 41.6327C58.3852 47.9603 60.1154 54.6675 62.1819 59.5759C62.443 63.0233 64.273 65.2564 66.4327 66.6111C68.1777 67.7057 70.1422 68.2346 71.7058 68.419C71.368 70.4797 71.5246 72.4942 72.2963 74.3613C72.4676 78.2831 72.5341 82.6013 72.3335 86.1364C72.2317 87.9305 72.0626 89.495 71.8119 90.6935C71.6866 91.2931 71.5456 91.7774 71.3938 92.1429C71.2365 92.5221 71.0967 92.7019 71.0154 92.771C70.9541 92.8232 70.809 92.9165 70.5308 93.0444C70.2638 93.1673 69.92 93.3016 69.4974 93.4507C68.677 93.7401 67.6227 94.0633 66.3671 94.4481L66.2428 94.4862C63.6375 95.2848 60.2593 96.326 56.6501 97.7937C47.9774 101.32 37.7696 107.389 33.6336 118.76C32.6301 121.519 31.989 124.578 31.8117 127.972C31.0675 142.225 33.8202 154.1 38.6508 162.435C43.478 170.764 50.4475 175.643 58.0988 175.596C63.9526 175.561 73.7713 175.094 84.903 166.352C95.9585 157.67 108.217 140.899 119.265 108.543C119.303 108.526 119.344 108.508 119.387 108.489C119.692 108.352 120.13 108.154 120.664 107.902C121.73 107.4 123.182 106.687 124.722 105.841C126.26 104.998 127.9 104.015 129.336 102.974C130.757 101.944 132.047 100.81 132.817 99.6471C133.226 99.0312 133.519 98.3541 133.589 97.6313C133.66 96.8931 133.492 96.1627 133.064 95.4745C132.239 94.1484 130.489 93.0368 127.773 92.0856C125.224 91.1926 122.236 91.8721 119.107 93.4388C116.091 94.9488 112.793 97.3576 109.364 100.319C108.526 99.8497 107.704 99.4042 106.901 98.982C102.032 96.4217 97.8563 94.7149 95.0083 93.8013L94.5634 86.5898C98.1098 86.1013 101.005 84.0553 103.322 81.2477C105.985 79.5696 107.959 77.6166 109.044 75.484C110.11 73.3877 110.298 71.1474 109.47 68.9367C110.827 64.5688 111.631 60.1335 111.991 56.612C113.992 51.5224 115.076 43.7662 111.728 36.9613C108.318 30.0319 100.453 24.3584 85.0692 23.3515C82.3654 23.1746 79.9115 23.2043 77.6882 23.4179ZM111.599 51.7719C112.482 47.462 112.417 42.3258 110.158 37.7339C107.113 31.5455 99.9435 26.0788 84.9549 25.0978C82.0064 24.9048 79.3922 24.9671 77.0796 25.2433C74.035 25.607 71.5179 26.3407 69.4486 27.3474C63.3619 30.3085 60.9386 35.7481 60.5458 41.747C60.2328 46.5266 61.2211 51.5975 62.6523 55.865C62.7371 55.6595 62.8322 55.464 62.9372 55.2783C63.5402 54.2122 64.4302 53.5414 65.4114 53.1594C67.2963 52.4254 69.5255 52.7461 70.9864 53.219C72.5451 53.5271 74.7649 53.1929 77.4466 52.3248C80.1236 51.4582 83.1385 50.1012 86.1949 48.5118C92.3057 45.3339 98.4932 41.2738 102.319 38.5067C102.547 38.342 102.839 38.2967 103.106 38.3848C106.774 39.5956 108.974 43.0022 110.257 46.513C110.893 48.2555 111.324 50.0759 111.599 51.7719ZM69.8724 54.7209C68.6736 54.4266 67.2051 54.3389 66.0463 54.7901C65.3907 55.0454 64.8398 55.4692 64.4605 56.1398C64.0749 56.8214 63.8264 57.8301 63.9181 59.3158C64.0956 62.1935 65.5641 64.0005 67.3626 65.1286C68.7192 65.9795 70.2587 66.4365 71.5419 66.6314C70.2669 62.2033 69.8346 57.9035 69.8724 54.7209ZM71.6202 55.0608C71.6156 58.3434 72.1286 62.8295 73.5913 67.3508C73.6407 67.5035 73.6471 67.6669 73.6099 67.8231C73.0916 69.9968 73.1884 72.0215 73.9665 73.8176C74.9742 76.1441 77.1942 78.2397 81.0957 79.7674C81.1919 79.8051 81.2807 79.8595 81.3579 79.9281C83.466 81.8014 85.9991 83.3252 89.0381 84.3033C90.685 84.8333 92.1958 85.019 93.5827 84.9307C96.9413 84.7169 99.738 82.8794 102.057 80.0299C102.118 79.9548 102.192 79.8903 102.274 79.8392C104.83 78.2492 106.573 76.4811 107.484 74.6907C108.381 72.9271 108.489 71.1135 107.735 69.3071C107.656 69.1162 107.646 68.9033 107.709 68.7061C109.091 64.3403 109.903 59.8706 110.257 56.3621C110.238 54.0235 109.813 50.399 108.613 47.1135C107.453 43.9386 105.643 41.2714 102.967 40.1963C99.0702 42.9887 93.0101 46.9401 87.0023 50.0644C83.9005 51.6774 80.7904 53.0817 77.9855 53.9897C75.6641 54.7412 73.4633 55.183 71.6202 55.0608ZM92.817 86.7013C91.4482 86.6905 90.0099 86.4545 88.5019 85.9691C85.2767 84.9311 82.5702 83.3193 80.3125 81.3396C77.633 80.2707 75.5901 78.9021 74.1514 77.2902C74.2344 80.3637 74.235 83.5156 74.0807 86.2356C73.9768 88.0666 73.8013 89.7298 73.5249 91.0517C73.3867 91.7124 73.2186 92.3115 73.0102 92.8137C72.8074 93.3024 72.536 93.7749 72.1496 94.1037C71.9049 94.312 71.5873 94.4847 71.2621 94.6343C70.9258 94.789 70.5255 94.9437 70.0795 95.1011C69.2237 95.403 68.1378 95.7358 66.9042 96.1138L66.7557 96.1593C64.4805 96.8568 61.6669 97.7241 58.6396 98.8887C63.4706 102.948 71.051 107.51 79.3187 109.045C87.9093 110.641 97.2392 108.979 105.114 100.026C100.406 97.6144 96.4619 96.0622 93.9193 95.2949C93.5689 95.1892 93.3213 94.8765 93.2988 94.5111L92.817 86.7013ZM106.707 100.86C98.3127 110.623 88.2056 112.476 78.9992 110.766C69.9411 109.083 61.7533 103.962 56.8068 99.6214C48.5832 103.039 39.4921 108.655 35.5397 118.668L59.1605 132.086C59.3725 132.207 59.5246 132.41 59.5802 132.648L63.5107 149.433C63.9855 149.133 64.5748 148.683 65.2808 148.065C66.4648 147.028 67.8778 145.608 69.4846 143.882C72.636 140.497 76.4745 135.998 80.7038 131.042L80.9524 130.751C89.2931 120.976 99.1096 109.494 107.97 101.546C107.545 101.311 107.123 101.083 106.707 100.86ZM34.9415 120.341C34.1911 122.674 33.7069 125.239 33.5594 128.064C32.8284 142.06 35.5417 153.581 40.1649 161.558C44.7915 169.54 51.2635 173.888 58.0881 173.846C63.7638 173.812 73.1279 173.374 83.8222 164.976C94.5511 156.55 106.711 140.037 117.733 107.614C117.813 107.379 117.989 107.189 118.217 107.091L118.219 107.091L118.245 107.079L118.333 107.041C118.411 107.007 118.526 106.957 118.674 106.891C118.969 106.759 119.397 106.565 119.918 106.319C120.962 105.828 122.38 105.13 123.88 104.307C125.383 103.483 126.954 102.54 128.31 101.557C129.681 100.563 130.765 99.5769 131.359 98.6803C131.66 98.2263 131.813 97.8208 131.847 97.463C131.88 97.1207 131.811 96.7725 131.578 96.399C131.082 95.6017 129.821 94.657 127.195 93.7372C125.319 93.0801 122.874 93.5099 119.89 95.0037C116.93 96.4856 113.598 98.9361 110.049 102.043C101.066 109.905 90.9414 121.741 82.2836 131.887L82.0159 132.2C77.8026 137.138 73.9432 141.661 70.7654 145.074C69.1433 146.817 67.6836 148.286 66.434 149.381C65.2181 150.446 64.0943 151.255 63.1562 151.533C62.9253 151.602 62.6762 151.572 62.4679 151.451C62.2596 151.33 62.1103 151.128 62.0554 150.894L57.9635 133.419L34.9415 120.341Z" fill="black"/>
<path fill-rule="evenodd" clip-rule="evenodd" d="M86.8614 68.7054C87.1185 68.2962 87.6587 68.173 88.0678 68.4302C89.8501 69.5505 90.2974 71.4574 90.2331 73.1539C90.1687 74.8508 89.5974 76.536 89.0928 77.5813C88.8827 78.0165 88.3596 78.199 87.9244 77.9889C87.4892 77.7788 87.3067 77.2557 87.5168 76.8205C87.949 75.9253 88.4316 74.4789 88.4843 73.0876C88.5371 71.6958 88.1647 70.5581 87.1365 69.9118C86.7274 69.6546 86.6042 69.1145 86.8614 68.7054Z" fill="black"/>
<path fill-rule="evenodd" clip-rule="evenodd" d="M93.83 57.4691C94.1065 57.8654 94.0094 58.4108 93.6131 58.6873L91.7945 59.9561C91.3982 60.2326 90.8527 60.1355 90.5762 59.7392C90.2997 59.3429 90.3968 58.7974 90.7932 58.5209L92.6117 57.2521C93.0081 56.9756 93.5535 57.0727 93.83 57.4691ZM108.256 58.8189C108.623 59.1328 108.666 59.6851 108.352 60.0525L106.583 62.1228C106.269 62.4902 105.717 62.5335 105.35 62.2196C104.982 61.9056 104.939 61.3533 105.253 60.9859L107.022 58.9156C107.336 58.5483 107.888 58.5049 108.256 58.8189ZM101.333 65.9359C101.494 66.3915 101.255 66.8914 100.8 67.0526L95.2881 69.0016C94.8325 69.1628 94.3326 68.924 94.1715 68.4684C94.0103 68.0128 94.2491 67.5129 94.7047 67.3518L100.216 65.4027C100.672 65.2416 101.172 65.4803 101.333 65.9359ZM89.5009 72.9882C89.9314 72.7687 90.4584 72.9397 90.6779 73.3702C91.0966 74.1912 91.6567 74.7745 92.2062 75.0618C92.7272 75.3342 93.2291 75.3453 93.7112 75.0659C94.1293 74.8236 94.6647 74.9661 94.907 75.3842C95.1493 75.8023 95.0068 76.3377 94.5887 76.58C93.5174 77.2009 92.3723 77.1234 91.3953 76.6126C90.4468 76.1166 89.6579 75.2221 89.1189 74.1652C88.8994 73.7347 89.0704 73.2078 89.5009 72.9882Z" fill="black"/>
<path fill-rule="evenodd" clip-rule="evenodd" d="M94.884 54.9922C94.8542 54.5099 95.2211 54.0948 95.7034 54.065L102.115 53.6694C102.597 53.6397 103.013 54.0066 103.042 54.4889C103.072 54.9712 102.705 55.3864 102.223 55.4161L95.8112 55.8117C95.3288 55.8415 94.9137 55.4746 94.884 54.9922Z" fill="#E5322B"/>
<path fill-rule="evenodd" clip-rule="evenodd" d="M105.034 51.5268C103.817 53.3285 103.123 55.7941 103.29 58.4953C103.456 61.1965 104.448 63.5581 105.878 65.1966C107.306 66.8342 109.134 67.7168 111.02 67.6005C112.906 67.4841 114.611 66.3835 115.828 64.5827C117.045 62.781 117.739 60.3154 117.572 57.6141C117.406 54.9129 116.414 52.5514 114.984 50.9129C113.556 49.2753 111.728 48.3926 109.842 48.509C107.956 48.6254 106.251 49.726 105.034 51.5268ZM103.584 50.5472C105.036 48.398 107.194 46.919 109.734 46.7623C112.274 46.6056 114.598 47.8081 116.303 49.7625C118.007 51.716 119.131 54.4533 119.319 57.5064C119.507 60.5595 118.729 63.4141 117.278 65.5623C115.826 67.7114 113.668 69.1904 111.128 69.3472C108.587 69.5039 106.264 68.3014 104.559 66.347C102.855 64.3934 101.731 61.6562 101.543 58.6031C101.355 55.55 102.133 52.6954 103.584 50.5472Z" fill="#E5322B"/>
<path fill-rule="evenodd" clip-rule="evenodd" d="M86.401 46.7375C82.1454 47.0001 78.7131 51.3589 79.0471 56.7733C79.3812 62.1877 83.3232 66.0915 87.5789 65.829C91.8345 65.5664 95.2668 61.2076 94.9327 55.7932C94.5987 50.3788 90.6566 46.475 86.401 46.7375ZM77.3005 56.881C76.9245 50.7869 80.8108 45.3291 86.2932 44.9908C91.7757 44.6526 96.3034 49.5913 96.6794 55.6854C97.0554 61.7796 93.1691 67.2374 87.6866 67.5757C82.2042 67.9139 77.6764 62.9752 77.3005 56.881Z" fill="#E5322B"/>
</svg>
