<svg width="183" height="190" viewBox="0 0 183 190" fill="none" xmlns="http://www.w3.org/2000/svg">
<path d="M73.1181 177.229C52.5233 182.302 11.468 184.375 12.0052 152.087C12.1484 143.485 14.4607 134.999 18.0925 127.085C27.707 106.135 46.5684 89.1995 58.9063 84.7614C59.7574 84.4553 60.6866 84.8228 61.1269 85.6128C66.1076 94.5493 69.2937 106.716 85.24 105.288C92.0579 104.678 91.5585 96.675 90.4044 92.0678C90.0909 90.8161 90.8597 89.4549 92.0613 88.9845C94.0795 88.1944 96.0746 86.8402 98.0014 84.8428C98.3408 84.491 98.7845 84.2552 99.272 84.2196C108.595 83.5402 126.515 88.3765 129.24 113.288C132.04 138.888 118.073 163.288 110.74 172.288L73.1181 177.229Z" fill="black"/>
<path fill-rule="evenodd" clip-rule="evenodd" d="M101.324 80.63C116.099 58.1751 115.023 38.6102 106.74 29.7883C98.4573 20.9664 81.6268 11.4328 62.8229 41.0743C57.561 35.8603 47.0651 49.2094 62.8229 58.1751L60.3582 84.2883C61.3922 85.9924 62.3261 87.8578 63.2745 89.7521C67.3351 97.8628 71.6615 106.504 85.24 105.288C93.5303 104.546 91.0015 92.8739 89.6323 89.6667C92.6555 89.143 95.6679 87.4372 98.5195 84.2883C99.4743 83.2339 100.411 82.0178 101.324 80.63ZM129.24 113.288L116.167 124.886C115.7 125.3 115.456 125.905 115.488 126.528C116.123 138.538 112.964 160.178 110.74 172.288C118.073 163.288 132.04 138.888 129.24 113.288ZM73.1181 177.229C87.6688 174.803 113.681 167.569 101.324 158.042C90.8283 149.949 65.3773 149.876 48.7579 151.254L51.8739 136.646L18.0925 127.085C14.4607 134.999 12.1484 143.485 12.0052 152.087C11.468 184.375 52.5233 182.302 73.1181 177.229Z" fill="white"/>
<path fill-rule="evenodd" clip-rule="evenodd" d="M88.6981 20.008C96.7174 19.7766 103.254 24.6144 107.469 29.1038C116.223 38.4279 117.038 58.5664 102.159 81.1797C101.698 81.8804 101.23 82.5405 100.755 83.1608C105.343 83.1254 111.355 84.3208 116.791 87.984C123.256 92.3401 128.805 100.118 130.234 113.18C131.657 126.187 128.818 138.854 124.722 149.376C120.626 159.897 115.249 168.338 111.515 172.92L111.264 173.228L73.3032 178.214C62.9287 180.762 47.3766 182.57 34.4169 179.644C27.9165 178.176 21.9863 175.499 17.7098 171.043C13.4107 166.564 10.8672 160.374 11.0054 152.071C11.1513 143.301 13.5075 134.678 17.1836 126.668C22.2435 115.643 29.8237 105.734 37.6818 98.1315C45.2532 90.8063 53.168 85.5403 59.4255 83.5281L61.7673 58.7169C58.0294 56.4799 55.7306 53.951 54.5312 51.415C53.2697 48.748 53.2541 46.1314 53.9951 43.9814C54.7283 41.8543 56.2148 40.1589 57.9801 39.3724C59.4568 38.7145 61.122 38.7078 62.5759 39.6089C71.8475 25.3655 80.7968 20.2359 88.6981 20.008ZM61.8562 41.5481C60.922 40.7883 59.8388 40.7339 58.794 41.1993C57.604 41.7295 56.4647 42.9541 55.8859 44.6332C55.315 46.2895 55.3011 48.3653 56.3391 50.5599C57.2042 52.3889 58.8203 54.34 61.5268 56.1906C61.2765 53.7196 61.3876 51.3934 61.5496 49.1924C61.584 48.7257 61.6203 48.2666 61.6562 47.8139C61.8298 45.6216 61.9917 43.5783 61.8562 41.5481ZM63.2575 64.2123C65.3017 71.1163 68.5107 77.3769 72.3846 82.0882C77.0903 87.8111 82.9436 91.4253 88.982 90.7678C89.5784 92.5011 90.2513 95.5436 90.0608 98.3337C89.9512 99.9392 89.5621 101.359 88.8073 102.397C88.0811 103.397 86.9557 104.131 85.1508 104.292C78.619 104.877 74.4276 103.098 71.3649 100.282C68.2374 97.4057 66.2162 93.3943 64.1687 89.3045L64.1586 89.2844C63.2685 87.5065 62.3716 85.7149 61.3847 84.0552L63.2575 64.2123ZM59.8999 85.4769C54.0792 87.3881 46.4849 92.3974 39.0724 99.5689C31.6168 106.782 24.4302 116.101 19.4968 126.444L51.1187 135.393L54.012 121.83C54.1272 121.29 54.6585 120.945 55.1986 121.06C55.7387 121.176 56.0832 121.707 55.968 122.247L50.0157 150.151C58.1353 149.534 68.117 149.282 77.4249 150.1C87.194 150.959 96.4401 153.013 101.935 157.25C103.558 158.502 104.652 159.791 105.186 161.133C105.734 162.512 105.657 163.868 105.088 165.13C104.533 166.358 103.532 167.458 102.287 168.444C101.036 169.435 99.4836 170.353 97.7495 171.198C95.7709 172.162 93.5177 173.05 91.1381 173.854L109.887 171.392C112.102 159.158 115.106 138.228 114.49 126.581C114.441 125.663 114.802 124.76 115.503 124.138L128.187 112.885C126.73 100.661 121.52 93.5818 115.673 89.6426C109.871 85.7329 103.346 84.8519 98.998 85.2453C96.457 87.9667 93.749 89.6515 90.9661 90.3961C91.6103 92.378 92.2577 95.5179 92.0561 98.4699C91.9328 100.276 91.4852 102.114 90.4253 103.573C89.3368 105.071 87.6694 106.075 85.3292 106.284C78.2824 106.915 73.5214 104.982 70.0111 101.754C66.5892 98.607 64.4231 94.2803 62.4216 90.2824L62.3803 90.1998C61.5544 88.5501 60.7558 86.956 59.8999 85.4769ZM128.427 115.347L116.83 125.634C116.598 125.84 116.47 126.147 116.487 126.475C117.061 137.339 114.575 155.89 112.452 168.345C115.744 163.643 119.69 156.789 122.858 148.651C126.671 138.856 129.336 127.258 128.427 115.347ZM47.9345 150.32L50.7006 137.353L18.6487 128.282C15.2658 135.873 13.1408 143.949 13.0051 152.104C12.8746 159.944 15.2615 165.604 19.1528 169.658C23.0667 173.736 28.5868 176.277 34.8574 177.693C47.4172 180.529 62.6586 178.776 72.879 176.258L72.916 176.249L72.9537 176.243C80.2007 175.035 90.2275 172.639 96.8734 169.4C98.5279 168.594 99.944 167.749 101.046 166.876C102.154 165.999 102.891 165.135 103.265 164.307C103.623 163.513 103.665 162.721 103.327 161.872C102.975 160.985 102.179 159.964 100.713 158.834C95.7123 154.978 86.9849 152.949 77.2497 152.093C67.5723 151.242 57.1151 151.564 48.8405 152.251C45.9084 152.494 43.2554 152.782 41.014 153.079C40.4665 153.151 39.9639 152.766 39.8914 152.218C39.819 151.671 40.2041 151.168 40.7516 151.096C42.8367 150.82 45.2651 150.552 47.9345 150.32ZM63.8458 41.3297C64.0021 43.5558 63.8237 45.796 63.6471 48.0138C63.6119 48.4566 63.5767 48.8985 63.5442 49.3392C63.3384 52.1356 63.2322 54.9637 63.8054 57.9889C65.4911 66.8859 69.2283 75.1007 73.9294 80.818C78.656 86.5663 84.1759 89.5971 89.4616 88.6814C92.2203 88.2035 95.043 86.6376 97.7782 83.6171C98.6948 82.6049 99.6006 81.4302 100.489 80.0804C115.159 57.7838 113.822 38.7925 106.011 30.4728C101.943 26.1404 95.9233 21.8004 88.7557 22.0072C81.6852 22.2111 73.0973 26.8593 63.8458 41.3297Z" fill="black"/>
<path fill-rule="evenodd" clip-rule="evenodd" d="M88.6981 20.008C96.7174 19.7766 103.254 24.6144 107.469 29.1038C116.223 38.4279 117.038 58.5664 102.159 81.1797C101.698 81.8804 101.23 82.5405 100.755 83.1608C105.343 83.1254 111.355 84.3208 116.791 87.984C123.256 92.3401 128.805 100.118 130.234 113.18C131.657 126.187 128.818 138.854 124.722 149.376C120.626 159.897 115.249 168.338 111.515 172.92L111.264 173.228L73.3032 178.214C62.9287 180.762 47.3766 182.57 34.4169 179.644C27.9165 178.176 21.9863 175.499 17.7098 171.043C13.4107 166.564 10.8672 160.374 11.0054 152.071C11.1513 143.301 13.5075 134.678 17.1836 126.668C22.2435 115.643 29.8237 105.734 37.6818 98.1315C45.2532 90.8063 53.168 85.5403 59.4255 83.5281L61.7673 58.7169C58.0294 56.4799 55.7306 53.951 54.5312 51.415C53.2697 48.748 53.2541 46.1314 53.9951 43.9814C54.7283 41.8543 56.2148 40.1589 57.9801 39.3724C59.4568 38.7145 61.122 38.7078 62.5759 39.6089C71.8475 25.3655 80.7968 20.2359 88.6981 20.008ZM61.8562 41.5481C60.922 40.7883 59.8388 40.7339 58.794 41.1993C57.604 41.7295 56.4647 42.9541 55.8859 44.6332C55.315 46.2895 55.3011 48.3653 56.3391 50.5599C57.2042 52.3889 58.8203 54.34 61.5268 56.1906C61.2765 53.7196 61.3876 51.3934 61.5496 49.1924C61.584 48.7257 61.6203 48.2666 61.6562 47.8139C61.8298 45.6216 61.9917 43.5783 61.8562 41.5481ZM63.2575 64.2123C65.3017 71.1163 68.5107 77.3769 72.3846 82.0882C77.0903 87.8111 82.9436 91.4253 88.982 90.7678C89.5784 92.5011 90.2513 95.5436 90.0608 98.3337C89.9512 99.9392 89.5621 101.359 88.8073 102.397C88.0811 103.397 86.9557 104.131 85.1508 104.292C81.1024 104.655 77.9699 104.107 75.4596 102.992C72.9486 101.876 70.9947 100.165 69.347 98.1018C67.6914 96.0288 66.3597 93.6203 65.0849 91.1227C64.7829 90.5311 64.4831 89.9321 64.1825 89.3318C63.2817 87.5322 62.3745 85.7201 61.3847 84.0552L63.2575 64.2123ZM59.9 85.4768C54.0792 87.3881 46.485 92.3974 39.0724 99.5689C31.6168 106.782 24.4302 116.101 19.4968 126.444L51.1187 135.393L54.012 121.83C54.1272 121.29 54.6585 120.945 55.1986 121.06C55.7387 121.176 56.0832 121.707 55.968 122.247L50.0157 150.151C58.1353 149.534 68.117 149.282 77.4249 150.1C87.194 150.959 96.4401 153.013 101.935 157.25C103.558 158.502 104.652 159.791 105.186 161.133C105.734 162.512 105.657 163.868 105.088 165.13C104.533 166.358 103.532 167.458 102.287 168.444C101.036 169.435 99.4836 170.353 97.7495 171.198C95.7709 172.162 93.5177 173.05 91.1381 173.854L109.887 171.392C112.167 158.802 115.276 137.028 114.429 125.617C114.295 123.814 114.065 122.315 113.734 121.173C113.393 119.997 112.99 119.358 112.63 119.081C112.193 118.744 112.111 118.116 112.447 117.679C112.784 117.241 113.412 117.159 113.85 117.496C114.726 118.17 115.28 119.321 115.655 120.616C115.898 121.456 116.085 122.425 116.225 123.497L128.187 112.885C126.73 100.661 121.52 93.5818 115.673 89.6426C109.871 85.7329 103.346 84.8519 98.998 85.2453C96.457 87.9667 93.749 89.6515 90.9661 90.3961C91.6103 92.378 92.2577 95.5179 92.0561 98.4699C91.9328 100.276 91.4852 102.114 90.4253 103.573C89.3368 105.071 87.6694 106.075 85.3292 106.284C81.0026 106.672 77.5199 106.095 74.6478 104.819C71.7764 103.544 69.5806 101.599 67.7842 99.3499C65.9956 97.1103 64.5888 94.55 63.3035 92.032C62.9842 91.4063 62.6734 90.7855 62.3663 90.1722C61.5475 88.5369 60.7555 86.9551 59.9 85.4768ZM128.427 115.347L116.457 125.965C117.14 136.76 114.607 155.701 112.452 168.345C115.744 163.643 119.69 156.789 122.858 148.651C126.671 138.856 129.336 127.258 128.427 115.347ZM47.9345 150.32L50.7006 137.353L18.6487 128.282C15.2658 135.873 13.1408 143.949 13.0051 152.104C12.8746 159.944 15.2615 165.604 19.1528 169.658C23.0667 173.736 28.5868 176.277 34.8574 177.693C47.4172 180.529 62.6586 178.776 72.879 176.258L72.916 176.249L72.9537 176.243C80.2007 175.035 90.2275 172.639 96.8734 169.4C98.5279 168.594 99.944 167.749 101.046 166.876C102.154 165.999 102.891 165.135 103.265 164.307C103.623 163.513 103.665 162.721 103.327 161.872C102.975 160.985 102.179 159.964 100.713 158.834C95.7123 154.978 86.9849 152.949 77.2497 152.093C67.5723 151.242 57.1151 151.564 48.8405 152.251C45.9084 152.494 43.2554 152.782 41.014 153.079C40.4665 153.151 39.9639 152.766 39.8914 152.218C39.819 151.671 40.2041 151.168 40.7516 151.096C42.8367 150.82 45.2651 150.552 47.9345 150.32ZM63.8458 41.3297C64.0021 43.5558 63.8237 45.796 63.6471 48.0138C63.6119 48.4566 63.5767 48.8985 63.5442 49.3392C63.3384 52.1356 63.2322 54.9637 63.8054 57.9889C65.4911 66.8859 69.2283 75.1007 73.9294 80.818C78.656 86.5663 84.1759 89.5971 89.4616 88.6814C92.2203 88.2035 95.043 86.6376 97.7782 83.6171C98.6948 82.6049 99.6006 81.4302 100.489 80.0804C115.159 57.7838 113.822 38.7925 106.011 30.4728C101.943 26.1404 95.9233 21.8004 88.7557 22.0072C81.6852 22.2111 73.0973 26.8593 63.8458 41.3297Z" fill="black"/>
<path fill-rule="evenodd" clip-rule="evenodd" d="M88.6417 48.6622C89.0093 49.0743 88.9732 49.7065 88.561 50.0741L83.8152 54.3068C83.4031 54.6744 82.7709 54.6383 82.4033 54.2261C82.0357 53.8139 82.0718 53.1818 82.484 52.8142L87.2298 48.5815C87.642 48.2139 88.2741 48.25 88.6417 48.6622ZM104.431 50.3444C104.791 50.7638 104.742 51.3951 104.323 51.7545L99.8335 55.6024C99.4142 55.9618 98.7829 55.9133 98.4234 55.4939C98.064 55.0746 98.1126 54.4433 98.5319 54.0839L103.021 50.236C103.44 49.8765 104.072 49.9251 104.431 50.3444ZM94.8572 64.104C95.0555 64.6195 94.7983 65.1981 94.2828 65.3963L89.2805 67.3203C88.765 67.5185 88.1864 67.2614 87.9882 66.7459C87.7899 66.2304 88.0471 65.6518 88.5626 65.4536L93.5649 63.5296C94.0804 63.3314 94.6589 63.5885 94.8572 64.104ZM80.2317 70.981C80.6697 70.6446 81.2975 70.7269 81.6339 71.1649C82.9427 72.8689 83.947 73.9164 85.0138 74.5787C86.0534 75.2242 87.2319 75.5517 88.9776 75.6497C89.529 75.6806 89.9509 76.1527 89.92 76.7041C89.889 77.2556 89.4169 77.6775 88.8655 77.6465C86.9053 77.5365 85.3698 77.1539 83.9588 76.2778C82.5749 75.4186 81.3918 74.1331 80.0478 72.3832C79.7114 71.9452 79.7937 71.3174 80.2317 70.981Z" fill="black"/>
<path d="M65 176.697C65 174.883 66.4707 173.412 68.285 173.412H144.036C145.85 173.412 147.321 174.883 147.321 176.697V177.611C147.321 179.425 145.85 180.896 144.036 180.896H68.285C66.4707 180.896 65 179.425 65 177.611V176.697Z" fill="#E5E5E5"/>
<path fill-rule="evenodd" clip-rule="evenodd" d="M144.036 175.055H68.285C67.3779 175.055 66.6425 175.79 66.6425 176.697V177.611C66.6425 178.518 67.3779 179.253 68.285 179.253H144.036C144.943 179.253 145.678 178.518 145.678 177.611V176.697C145.678 175.79 144.943 175.055 144.036 175.055ZM68.285 173.412C66.4707 173.412 65 174.883 65 176.697V177.611C65 179.425 66.4707 180.896 68.285 180.896H144.036C145.85 180.896 147.321 179.425 147.321 177.611V176.697C147.321 174.883 145.85 173.412 144.036 173.412H68.285Z" fill="black"/>
<path d="M102.141 134.866C102.687 133.726 103.839 133 105.104 133H163.059C165.477 133 167.066 135.524 166.022 137.704L149.095 173.043C148.549 174.183 147.397 174.909 146.132 174.909H88.1767C85.759 174.909 84.1696 172.385 85.2141 170.205L102.141 134.866Z" fill="#E5E5E5"/>
<path fill-rule="evenodd" clip-rule="evenodd" d="M163.059 134.642H105.104C104.472 134.642 103.895 135.005 103.622 135.575L86.6954 170.914C86.1732 172.004 86.9679 173.266 88.1767 173.266H146.132C146.764 173.266 147.34 172.903 147.614 172.333L164.541 136.995C165.063 135.904 164.268 134.642 163.059 134.642ZM105.104 133C103.839 133 102.687 133.726 102.141 134.866L85.2141 170.205C84.1696 172.385 85.759 174.909 88.1767 174.909H146.132C147.397 174.909 148.549 174.183 149.095 173.043L166.022 137.704C167.066 135.524 165.477 133 163.059 133H105.104Z" fill="black"/>
<path d="M80.0097 35.0408C86.5151 42.2245 98.9841 42.8231 104.405 42.2245C126.09 35.7592 117.055 17.381 109.827 9C108.02 17.9796 92.6594 11.6939 80.0097 11.6939C69.89 11.6939 66.1554 18.2789 65.5531 21.5714C63.746 22.1701 57.6019 26.4204 54.7106 31.449C51.8194 36.4776 57.7224 44.3197 60.1318 47.6122C73.8656 51.9225 79.1061 41.0272 80.0097 35.0408Z" fill="#E5322B"/>
</svg>
