<svg width="183" height="190" viewBox="0 0 183 190" fill="none" xmlns="http://www.w3.org/2000/svg">
<path d="M91.1181 179.229C70.5233 184.302 29.468 186.375 30.0052 154.087C30.1484 145.485 32.4607 136.999 36.0925 129.085C45.707 108.135 64.5684 91.1995 76.9063 86.7614C77.7574 86.4553 78.6866 86.8228 79.1269 87.6128C84.1076 96.5493 87.2937 108.716 103.24 107.288C110.058 106.678 109.558 98.675 108.404 94.0678C108.091 92.8161 108.86 91.4549 110.061 90.9845C112.079 90.1944 114.075 88.8402 116.001 86.8428C116.341 86.491 116.784 86.2552 117.272 86.2196C126.595 85.5402 144.515 90.3765 147.24 115.288C150.04 140.888 136.073 165.288 128.74 174.288L91.1181 179.229Z" fill="#E5E5E5"/>
<path fill-rule="evenodd" clip-rule="evenodd" d="M119.324 82.63C134.099 60.1751 133.023 40.6102 124.74 31.7883C116.457 22.9664 99.6268 13.4328 80.8229 43.0743C75.561 37.8603 65.0651 51.2094 80.8229 60.1751L78.3582 86.2883C79.3922 87.9924 80.3261 89.8578 81.2745 91.7521C85.3351 99.8628 89.6615 108.504 103.24 107.288C111.53 106.546 109.002 94.8739 107.632 91.6667C110.656 91.143 113.668 89.4372 116.519 86.2883C117.474 85.2339 118.411 84.0178 119.324 82.63ZM147.24 115.288L134.167 126.886C133.7 127.3 133.456 127.905 133.488 128.528C134.123 140.538 130.964 162.178 128.74 174.288C136.073 165.288 150.04 140.888 147.24 115.288ZM91.1181 179.229C105.669 176.803 131.681 169.569 119.324 160.042C108.828 151.949 83.3773 151.876 66.7579 153.254L69.8739 138.646L36.0925 129.085C32.4607 136.999 30.1484 145.485 30.0052 154.087C29.468 186.375 70.5233 184.302 91.1181 179.229Z" fill="white"/>
<path fill-rule="evenodd" clip-rule="evenodd" d="M106.698 22.008C114.717 21.7766 121.254 26.6144 125.469 31.1038C134.223 40.4279 135.038 60.5664 120.159 83.1797C119.698 83.8804 119.23 84.5405 118.755 85.1608C123.343 85.1254 129.355 86.3208 134.791 89.984C141.256 94.3401 146.805 102.118 148.234 115.18C149.657 128.187 146.818 140.854 142.722 151.376C138.626 161.897 133.249 170.338 129.515 174.92L129.264 175.228L91.3032 180.214C80.9287 182.762 65.3766 184.57 52.4169 181.644C45.9165 180.176 39.9863 177.499 35.7098 173.043C31.4107 168.564 28.8672 162.374 29.0054 154.071C29.1513 145.301 31.5075 136.678 35.1836 128.668C40.2435 117.643 47.8237 107.734 55.6818 100.132C63.2532 92.8063 71.168 87.5403 77.4255 85.5281L79.7673 60.7169C76.0294 58.4799 73.7306 55.951 72.5312 53.415C71.2697 50.748 71.2541 48.1314 71.9951 45.9814C72.7283 43.8543 74.2148 42.1589 75.9801 41.3724C77.4568 40.7145 79.122 40.7078 80.5759 41.6089C89.8475 27.3655 98.7968 22.2359 106.698 22.008ZM79.8562 43.5481C78.922 42.7883 77.8388 42.7339 76.794 43.1993C75.604 43.7295 74.4647 44.9541 73.8859 46.6332C73.315 48.2895 73.3011 50.3653 74.3391 52.5599C75.2042 54.3889 76.8203 56.34 79.5268 58.1906C79.2765 55.7196 79.3876 53.3934 79.5496 51.1924C79.584 50.7257 79.6203 50.2666 79.6562 49.8139C79.8298 47.6216 79.9917 45.5783 79.8562 43.5481ZM81.2575 66.2123C83.3017 73.1163 86.5107 79.3769 90.3846 84.0882C95.0903 89.8111 100.944 93.4253 106.982 92.7678C107.578 94.5011 108.251 97.5436 108.061 100.334C107.951 101.939 107.562 103.359 106.807 104.397C106.081 105.397 104.956 106.131 103.151 106.292C96.619 106.877 92.4276 105.098 89.3649 102.282C86.2374 99.4057 84.2162 95.3943 82.1687 91.3045L82.1586 91.2844C81.2685 89.5065 80.3716 87.7149 79.3847 86.0552L81.2575 66.2123ZM77.8999 87.4769C72.0792 89.3881 64.4849 94.3974 57.0724 101.569C49.6168 108.782 42.4302 118.101 37.4968 128.444L69.1187 137.393L72.012 123.83C72.1272 123.29 72.6585 122.945 73.1986 123.06C73.7387 123.176 74.0832 123.707 73.968 124.247L68.0157 152.151C76.1353 151.534 86.117 151.282 95.4249 152.1C105.194 152.959 114.44 155.013 119.935 159.25C121.558 160.502 122.652 161.791 123.186 163.133C123.734 164.512 123.657 165.868 123.088 167.13C122.533 168.358 121.532 169.458 120.287 170.444C119.036 171.435 117.484 172.353 115.75 173.198C113.771 174.162 111.518 175.05 109.138 175.854L127.887 173.392C130.102 161.158 133.106 140.228 132.49 128.581C132.441 127.663 132.802 126.76 133.503 126.138L146.187 114.885C144.73 102.661 139.52 95.5818 133.673 91.6426C127.871 87.7329 121.346 86.8519 116.998 87.2453C114.457 89.9667 111.749 91.6515 108.966 92.3961C109.61 94.378 110.258 97.5179 110.056 100.47C109.933 102.276 109.485 104.114 108.425 105.573C107.337 107.071 105.669 108.075 103.329 108.284C96.2824 108.915 91.5214 106.982 88.0111 103.754C84.5892 100.607 82.4231 96.2803 80.4216 92.2824L80.3803 92.1998C79.5544 90.5501 78.7558 88.956 77.8999 87.4769ZM146.427 117.347L134.83 127.634C134.598 127.84 134.47 128.147 134.487 128.475C135.061 139.339 132.575 157.89 130.452 170.345C133.744 165.643 137.69 158.789 140.858 150.651C144.671 140.856 147.336 129.258 146.427 117.347ZM65.9345 152.32L68.7006 139.353L36.6487 130.282C33.2658 137.873 31.1408 145.949 31.0051 154.104C30.8746 161.944 33.2615 167.604 37.1528 171.658C41.0667 175.736 46.5868 178.277 52.8574 179.693C65.4172 182.529 80.6586 180.776 90.879 178.258L90.916 178.249L90.9537 178.243C98.2007 177.035 108.227 174.639 114.873 171.4C116.528 170.594 117.944 169.749 119.046 168.876C120.154 167.999 120.891 167.135 121.265 166.307C121.623 165.513 121.665 164.721 121.327 163.872C120.975 162.985 120.179 161.964 118.713 160.834C113.712 156.978 104.985 154.949 95.2497 154.093C85.5723 153.242 75.1151 153.564 66.8405 154.251C63.9084 154.494 61.2554 154.782 59.014 155.079C58.4665 155.151 57.9639 154.766 57.8914 154.218C57.819 153.671 58.2041 153.168 58.7516 153.096C60.8367 152.82 63.2651 152.552 65.9345 152.32ZM81.8458 43.3297C82.0021 45.5558 81.8237 47.796 81.6471 50.0138C81.6119 50.4566 81.5767 50.8985 81.5442 51.3392C81.3384 54.1356 81.2322 56.9637 81.8054 59.9889C83.4911 68.8859 87.2283 77.1007 91.9294 82.818C96.656 88.5663 102.176 91.5971 107.462 90.6814C110.22 90.2035 113.043 88.6376 115.778 85.6171C116.695 84.6049 117.601 83.4302 118.489 82.0804C133.159 59.7838 131.822 40.7925 124.011 32.4728C119.943 28.1404 113.923 23.8004 106.756 24.0072C99.6852 24.2111 91.0973 28.8593 81.8458 43.3297Z" fill="black"/>
<path fill-rule="evenodd" clip-rule="evenodd" d="M80.6756 43L95 49.3955L94.3244 51L80 44.6045L80.6756 43Z" fill="#E5322B"/>
<path fill-rule="evenodd" clip-rule="evenodd" d="M106.698 22.008C114.717 21.7766 121.254 26.6144 125.469 31.1038C134.223 40.4279 135.038 60.5664 120.159 83.1797C119.698 83.8804 119.23 84.5405 118.755 85.1608C123.343 85.1254 129.355 86.3208 134.791 89.984C141.256 94.3401 146.805 102.118 148.234 115.18C149.657 128.187 146.818 140.854 142.722 151.376C138.626 161.897 133.249 170.338 129.515 174.92L129.264 175.228L91.3032 180.214C80.9287 182.762 65.3766 184.57 52.4169 181.644C45.9165 180.176 39.9863 177.499 35.7098 173.043C31.4107 168.564 28.8672 162.374 29.0054 154.071C29.1513 145.301 31.5075 136.678 35.1836 128.668C40.2435 117.643 47.8237 107.734 55.6818 100.132C63.2532 92.8063 71.168 87.5403 77.4255 85.5281L79.7673 60.7169C76.0294 58.4799 73.7306 55.951 72.5312 53.415C71.2697 50.748 71.2541 48.1314 71.9951 45.9814C72.7283 43.8543 74.2148 42.1589 75.9801 41.3724C77.4568 40.7145 79.122 40.7078 80.5759 41.6089C89.8475 27.3655 98.7968 22.2359 106.698 22.008ZM79.8562 43.5481C78.922 42.7883 77.8388 42.7339 76.794 43.1993C75.604 43.7295 74.4647 44.9541 73.8859 46.6332C73.315 48.2895 73.3011 50.3653 74.3391 52.5599C75.2042 54.3889 76.8203 56.34 79.5268 58.1906C79.2765 55.7196 79.3876 53.3934 79.5496 51.1924C79.584 50.7257 79.6203 50.2666 79.6562 49.8139C79.8298 47.6216 79.9917 45.5783 79.8562 43.5481ZM81.2575 66.2123C83.3017 73.1163 86.5107 79.3769 90.3846 84.0882C95.0903 89.8111 100.944 93.4253 106.982 92.7678C107.578 94.5011 108.251 97.5436 108.061 100.334C107.951 101.939 107.562 103.359 106.807 104.397C106.081 105.397 104.956 106.131 103.151 106.292C99.1024 106.655 95.9699 106.107 93.4596 104.992C90.9486 103.876 88.9947 102.165 87.347 100.102C85.6914 98.0288 84.3597 95.6203 83.0849 93.1227C82.7829 92.5311 82.4831 91.9321 82.1825 91.3318C81.2817 89.5322 80.3745 87.7201 79.3847 86.0552L81.2575 66.2123ZM77.9 87.4768C72.0792 89.3881 64.485 94.3974 57.0724 101.569C49.6168 108.782 42.4302 118.101 37.4968 128.444L69.1187 137.393L72.012 123.83C72.1272 123.29 72.6585 122.945 73.1986 123.06C73.7387 123.176 74.0832 123.707 73.968 124.247L68.0157 152.151C76.1353 151.534 86.117 151.282 95.4249 152.1C105.194 152.959 114.44 155.013 119.935 159.25C121.558 160.502 122.652 161.791 123.186 163.133C123.734 164.512 123.657 165.868 123.088 167.13C122.533 168.358 121.532 169.458 120.287 170.444C119.036 171.435 117.484 172.353 115.75 173.198C113.771 174.162 111.518 175.05 109.138 175.854L127.887 173.392C130.167 160.802 133.276 139.028 132.429 127.617C132.295 125.814 132.065 124.315 131.734 123.173C131.393 121.997 130.99 121.358 130.63 121.081C130.193 120.744 130.111 120.116 130.447 119.679C130.784 119.241 131.412 119.159 131.85 119.496C132.726 120.17 133.28 121.321 133.655 122.616C133.898 123.456 134.085 124.425 134.225 125.497L146.187 114.885C144.73 102.661 139.52 95.5818 133.673 91.6426C127.871 87.7329 121.346 86.8519 116.998 87.2453C114.457 89.9667 111.749 91.6515 108.966 92.3961C109.61 94.378 110.258 97.5179 110.056 100.47C109.933 102.276 109.485 104.114 108.425 105.573C107.337 107.071 105.669 108.075 103.329 108.284C99.0026 108.672 95.5199 108.095 92.6478 106.819C89.7764 105.544 87.5806 103.599 85.7842 101.35C83.9956 99.1103 82.5888 96.55 81.3035 94.032C80.9842 93.4063 80.6734 92.7855 80.3663 92.1722C79.5475 90.5369 78.7555 88.9551 77.9 87.4768ZM146.427 117.347L134.457 127.965C135.14 138.76 132.607 157.701 130.452 170.345C133.744 165.643 137.69 158.789 140.858 150.651C144.671 140.856 147.336 129.258 146.427 117.347ZM65.9345 152.32L68.7006 139.353L36.6487 130.282C33.2658 137.873 31.1408 145.949 31.0051 154.104C30.8746 161.944 33.2615 167.604 37.1528 171.658C41.0667 175.736 46.5868 178.277 52.8574 179.693C65.4172 182.529 80.6586 180.776 90.879 178.258L90.916 178.249L90.9537 178.243C98.2007 177.035 108.227 174.639 114.873 171.4C116.528 170.594 117.944 169.749 119.046 168.876C120.154 167.999 120.891 167.135 121.265 166.307C121.623 165.513 121.665 164.721 121.327 163.872C120.975 162.985 120.179 161.964 118.713 160.834C113.712 156.978 104.985 154.949 95.2497 154.093C85.5723 153.242 75.1151 153.564 66.8405 154.251C63.9084 154.494 61.2554 154.782 59.014 155.079C58.4665 155.151 57.9639 154.766 57.8914 154.218C57.819 153.671 58.2041 153.168 58.7516 153.096C60.8367 152.82 63.2651 152.552 65.9345 152.32ZM81.8458 43.3297C82.0021 45.5558 81.8237 47.796 81.6471 50.0138C81.6119 50.4566 81.5767 50.8985 81.5442 51.3392C81.3384 54.1356 81.2322 56.9637 81.8054 59.9889C83.4911 68.8859 87.2283 77.1007 91.9294 82.818C96.656 88.5663 102.176 91.5971 107.462 90.6814C110.22 90.2035 113.043 88.6376 115.778 85.6171C116.695 84.6049 117.601 83.4302 118.489 82.0804C133.159 59.7838 131.822 40.7925 124.011 32.4728C119.943 28.1404 113.923 23.8004 106.756 24.0072C99.6852 24.2111 91.0973 28.8593 81.8458 43.3297Z" fill="black"/>
<path fill-rule="evenodd" clip-rule="evenodd" d="M106.642 50.6622C107.009 51.0743 106.973 51.7065 106.561 52.0741L101.815 56.3068C101.403 56.6744 100.771 56.6383 100.403 56.2261C100.036 55.8139 100.072 55.1818 100.484 54.8142L105.23 50.5815C105.642 50.2139 106.274 50.25 106.642 50.6622ZM122.431 52.3444C122.791 52.7638 122.742 53.3951 122.323 53.7545L117.833 57.6024C117.414 57.9618 116.783 57.9133 116.423 57.4939C116.064 57.0746 116.113 56.4433 116.532 56.0839L121.021 52.236C121.44 51.8765 122.072 51.9251 122.431 52.3444ZM112.857 66.104C113.055 66.6195 112.798 67.1981 112.283 67.3963L107.281 69.3203C106.765 69.5185 106.186 69.2614 105.988 68.7459C105.79 68.2304 106.047 67.6518 106.563 67.4536L111.565 65.5296C112.08 65.3314 112.659 65.5885 112.857 66.104ZM98.2317 72.981C98.6697 72.6446 99.2975 72.7269 99.6339 73.1649C100.943 74.8689 101.947 75.9164 103.014 76.5787C104.053 77.2242 105.232 77.5517 106.978 77.6497C107.529 77.6806 107.951 78.1527 107.92 78.7041C107.889 79.2556 107.417 79.6775 106.865 79.6465C104.905 79.5365 103.37 79.1539 101.959 78.2778C100.575 77.4186 99.3918 76.1331 98.0478 74.3832C97.7114 73.9452 97.7937 73.3174 98.2317 72.981Z" fill="black"/>
<path d="M123.48 120.414C123.762 118.643 121.839 117.274 120.396 118.34C113.243 123.627 106.091 131.709 114.508 136.547C115.572 137.158 116.054 138.509 115.428 139.564L107.853 152.334C107.205 153.427 107.727 154.84 108.931 155.248L114.256 157.054C115.134 157.351 116.1 157.007 116.593 156.223L123.942 144.512C124.599 143.465 126.039 143.27 127.089 143.923C131.661 146.764 138.697 147.331 141.657 133.983C141.985 132.505 140.527 131.294 139.074 131.718C134.565 133.034 128.31 134.296 125.305 132.939C122.478 131.663 122.661 125.555 123.48 120.414Z" fill="#E5322B"/>
<path fill-rule="evenodd" clip-rule="evenodd" d="M122.018 119.137C121.698 118.917 121.326 118.896 120.99 119.144C117.442 121.767 114.029 124.993 112.509 128.056C111.758 129.571 111.52 130.944 111.838 132.15C112.152 133.339 113.059 134.561 115.006 135.68C116.463 136.517 117.249 138.455 116.288 140.074L108.713 152.844C108.389 153.391 108.65 154.097 109.252 154.301L114.577 156.107C115.016 156.255 115.499 156.083 115.745 155.691L123.094 143.981C124.101 142.377 126.194 142.189 127.617 143.074C129.773 144.413 132.311 145.091 134.579 144.106C136.844 143.124 139.227 140.318 140.681 133.766C140.82 133.138 140.185 132.436 139.354 132.678C137.07 133.345 134.323 134.004 131.749 134.323C129.229 134.636 126.669 134.652 124.894 133.851C123.892 133.399 123.228 132.547 122.797 131.571C122.369 130.6 122.137 129.437 122.029 128.214C121.813 125.766 122.077 122.861 122.492 120.257C122.568 119.782 122.352 119.366 122.018 119.137ZM123.151 117.489C124.069 118.12 124.674 119.275 124.467 120.572C124.063 123.109 123.826 125.828 124.021 128.038C124.119 129.145 124.32 130.069 124.627 130.763C124.931 131.452 125.304 131.842 125.716 132.028C126.946 132.583 129.016 132.647 131.502 132.338C133.934 132.037 136.569 131.407 138.793 130.758C140.869 130.153 143.149 131.872 142.633 134.199C141.126 140.995 138.512 144.58 135.375 145.941C132.243 147.3 128.977 146.274 126.561 144.772C125.883 144.351 125.097 144.552 124.788 145.044L117.439 156.754C116.701 157.931 115.251 158.447 113.935 158.001L108.61 156.195C106.804 155.583 106.02 153.464 106.993 151.824L114.568 139.054C114.858 138.564 114.68 137.799 114.01 137.414C111.748 136.114 110.393 134.512 109.904 132.66C109.42 130.825 109.839 128.939 110.717 127.168C112.458 123.659 116.197 120.2 119.801 117.536C120.908 116.718 122.219 116.848 123.151 117.489Z" fill="#E5322B"/>
<path d="M95.0097 33.0408C101.515 40.2245 113.984 40.8231 119.405 40.2245C141.09 33.7592 132.055 15.381 124.827 7C123.02 15.9796 107.659 9.69388 95.0097 9.69388C84.89 9.69388 81.1554 16.2789 80.5531 19.5714C78.746 20.1701 72.6019 24.4204 69.7106 29.449C66.8194 34.4776 72.7224 42.3197 75.1318 45.6122C88.8656 49.9225 94.1061 39.0272 95.0097 33.0408Z" fill="black"/>
<path fill-rule="evenodd" clip-rule="evenodd" d="M109.697 52.4004C109.671 51.9726 109.996 51.6045 110.424 51.5781L116.111 51.2272C116.538 51.2008 116.906 51.5262 116.933 51.954C116.959 52.3818 116.634 52.75 116.206 52.7764L110.52 53.1272C110.092 53.1536 109.724 52.8282 109.697 52.4004Z" fill="#E5322B"/>
<path fill-rule="evenodd" clip-rule="evenodd" d="M118.921 49.3269C117.842 50.9248 117.226 53.1116 117.374 55.5073C117.522 57.903 118.402 59.9975 119.669 61.4506C120.936 62.903 122.557 63.6858 124.23 63.5826C125.903 63.4794 127.415 62.5033 128.494 60.9062C129.573 59.3082 130.189 57.1215 130.041 54.7258C129.894 52.3301 129.014 50.2356 127.746 48.7824C126.479 47.3301 124.858 46.5472 123.185 46.6504C121.513 46.7536 120 47.7298 118.921 49.3269ZM117.635 48.4581C118.923 46.552 120.837 45.2403 123.09 45.1013C125.343 44.9623 127.404 46.0288 128.916 47.7622C130.427 49.4947 131.423 51.9224 131.59 54.6302C131.758 57.338 131.067 59.8697 129.78 61.775C128.493 63.6811 126.579 64.9928 124.326 65.1318C122.073 65.2708 120.012 64.2043 118.5 62.4709C116.988 60.7383 115.992 58.3107 115.825 55.6029C115.658 52.8951 116.348 50.3633 117.635 48.4581Z" fill="#E5322B"/>
<path fill-rule="evenodd" clip-rule="evenodd" d="M101.689 45.0794C97.9149 45.3122 94.8708 49.178 95.167 53.9801C95.4633 58.7821 98.9595 62.2444 102.734 62.0116C106.508 61.7787 109.552 57.9129 109.256 53.1109C108.96 48.3088 105.463 44.8465 101.689 45.0794ZM93.6179 54.0757C93.2844 48.6707 96.7312 43.8302 101.594 43.5302C106.456 43.2303 110.472 47.6104 110.805 53.0153C111.139 58.4202 107.692 63.2607 102.829 63.5607C97.967 63.8607 93.9514 59.4806 93.6179 54.0757Z" fill="#E5322B"/>
</svg>
